<?xml version="1.0" encoding="UTF-8" standalone="no"?>
<!DOCTYPE svg PUBLIC "-//W3C//DTD SVG 1.1//EN" "http://www.w3.org/Graphics/SVG/1.1/DTD/svg11.dtd">
<svg width="100%" height="100%" viewBox="0 0 76 76" version="1.1" xmlns="http://www.w3.org/2000/svg" xmlns:xlink="http://www.w3.org/1999/xlink" xml:space="preserve" xmlns:serif="http://www.serif.com/" style="fill-rule:evenodd;clip-rule:evenodd;stroke-linejoin:round;stroke-miterlimit:2;">
    <g transform="matrix(0.294991,0,0,0.294991,-88.1086,-52.9939)">
        <path d="M553.081,402.833L437.818,202.375C433.396,194.416 421.899,194.416 417.477,202.375L301.919,402.833C297.497,410.793 303.098,420.521 312.236,420.521L542.764,420.521C551.902,420.521 557.503,410.793 553.081,402.833ZM418.656,249.542L436.344,249.542L436.344,352.719L418.656,352.719L418.656,249.542ZM427.5,393.99C419.246,393.99 412.76,387.504 412.76,379.25C412.76,370.996 419.246,364.51 427.5,364.51C435.754,364.51 442.24,370.996 442.24,379.25C442.24,387.504 435.754,393.99 427.5,393.99Z" style="fill:rgb(255,192,0);fill-rule:nonzero;"/>
    </g>
</svg>
