<svg 
    class="img-fluid" id="outputsvg" 
    xmlns="http://www.w3.org/2000/svg" 
    style="transform: matrix(0.3, 0, 0, 0.3, 0, 0.0726561); transform-origin: 50% 50%; cursor: move;" 
    width="3438" height="2921" viewBox="0 0 34380 29210">
    <g id="l1BzUzlg4fSzYdlLH0Z37I5" fill="rgb(127,127,127)" style="transform: none;">
        <g>
            <path id="pVzvQXRTZ" d="M0 29175 c0 -32 2 -35 30 -35 l30 0 0 -14570 0 -14570 17160 0 17160 0 0 14605 0 14605 -1770 0 -1770 0 0 -30 0 -30 -15385 0 -15385 0 0 30 c0 28 -3 30 -35 30 -33 0 -35 -2 -35 -35z m27440 -4710 c140 -14 372 -36 515 -50 143 -14 301 -29 350 -35 50 -5 140 -14 200 -20 61 -6 295 -28 520 -50 226 -22 473 -46 550 -55 77 -8 259 -26 405 -40 377 -36 773 -75 786 -78 6 -1 -209 -243 -479 -537 -520 -567 -1995 -2179 -2007 -2193 -8 -9 -21 23 -249 618 l-148 390 -37 3 c-27 2 -96 -19 -264 -84 -125 -47 -418 -160 -652 -249 -234 -90 -762 -292 -1175 -450 -412 -158 -1038 -397 -1390 -532 -352 -135 -1004 -384 -1450 -555 -445 -171 -884 -338 -975 -373 -91 -35 -455 -174 -810 -310 -355 -136 -690 -264 -745 -285 -109 -41 -320 -122 -1045 -400 -261 -100 -839 -321 -1285 -492 -445 -170 -1174 -449 -1620 -620 -445 -171 -884 -338 -975 -373 -91 -35 -455 -174 -810 -310 -355 -136 -690 -264 -745 -285 -113 -43 -278 -106 -1275 -488 -388 -148 -955 -366 -1260 -482 -305 -117 -622 -238 -705 -270 -945 -362 -1549 -593 -1685 -645 -91 -34 -426 -163 -745 -285 -319 -122 -654 -251 -745 -285 -91 -35 -271 -103 -400 -153 -707 -270 -1827 -699 -2113 -809 -180 -69 -330 -123 -333 -120 -8 7 -384 990 -381 994 2 1 140 55 308 119 167 64 390 149 494 189 734 281 1006 385 1425 545 261 100 626 240 810 310 184 71 760 291 1280 490 520 199 1096 420 1280 490 184 70 549 210 810 310 261 100 570 218 685 262 116 44 296 113 400 153 105 40 314 121 465 178 261 100 1220 467 2095 802 725 278 1684 645 2025 775 184 70 549 210 810 310 261 100 570 218 685 262 116 44 296 113 400 153 105 40 314 121 465 178 261 100 1220 467 2095 802 725 278 1684 645 2025 775 184 70 549 210 810 310 261 100 570 218 685 262 116 44 296 113 400 153 105 40 314 121 465 178 151 58 624 239 1050 402 426 163 877 336 1002 383 l228 87 0 41 c0 28 -28 114 -86 265 -47 123 -130 341 -185 485 -54 143 -99 264 -99 268 0 4 21 5 48 2 26 -3 162 -17 302 -31z m20 -4210 c135 -13 432 -42 660 -65 228 -22 483 -47 565 -55 83 -9 312 -31 510 -50 198 -20 515 -51 705 -70 190 -19 464 -46 609 -60 146 -14 266 -27 267 -28 3 -5 -2492 -2721 -2501 -2722 -5 0 -19 27 -32 60 -13 33 -99 258 -191 500 l-169 440 -39 3 c-31 2 -205 -61 -879 -319 -462 -177 -915 -350 -1007 -385 -93 -35 -243 -93 -335 -128 -93 -35 -535 -204 -983 -376 -448 -171 -1056 -404 -1350 -517 -1056 -404 -1291 -494 -1715 -656 -488 -188 -1764 -676 -2265 -867 -184 -70 -472 -181 -640 -245 -168 -64 -379 -145 -470 -180 -91 -35 -349 -133 -575 -220 -225 -86 -619 -237 -875 -335 -256 -98 -697 -267 -980 -375 -283 -108 -648 -248 -810 -310 -366 -140 -1839 -704 -2130 -815 -118 -45 -406 -155 -640 -245 -234 -90 -580 -222 -770 -295 -521 -199 -1427 -546 -2065 -790 -313 -120 -1072 -410 -1685 -645 -613 -235 -1392 -533 -1730 -662 -1167 -447 -1255 -480 -1276 -487 -16 -5 -24 -2 -29 11 -3 10 -43 113 -87 228 -44 116 -127 331 -184 479 -57 149 -102 271 -100 273 2 2 84 35 182 72 643 247 1034 396 1269 486 149 57 1166 446 2260 865 1095 419 2085 798 2200 842 210 80 574 220 1340 513 226 86 532 203 680 260 149 57 801 306 1450 555 649 248 1592 609 2095 802 1733 663 2056 787 2530 968 261 100 599 229 750 287 151 58 331 127 400 153 69 27 278 107 465 178 187 72 707 270 1155 442 793 304 1496 573 2665 1020 314 120 784 300 1045 400 261 100 599 229 750 287 151 58 408 156 570 218 162 62 491 188 730 279 738 283 670 254 670 285 0 14 -14 62 -31 106 -36 92 -179 467 -280 731 -38 100 -69 185 -69 189 0 7 0 7 370 -30z"></path>
        </g>
    </g>
    <g id="l4TzGovPuKBovnv3oogQklc" fill="rgb(192,0,0)" style="transform: none;">
        <g>
            <path id="p1EvtmBJP0" d="M27030 24537 c0 -4 9 -30 21 -59 20 -51 149 -389 305 -797 41 -107 74 -199 74 -205 0 -6 -103 -50 -228 -98 -125 -47 -576 -220 -1002 -383 -426 -163 -899 -344 -1050 -402 -151 -57 -360 -138 -465 -178 -104 -40 -284 -109 -400 -153 -115 -44 -424 -162 -685 -262 -261 -100 -626 -240 -810 -310 -341 -130 -1300 -497 -2025 -775 -875 -335 -1834 -702 -2095 -802 -151 -57 -360 -138 -465 -178 -104 -40 -284 -109 -400 -153 -115 -44 -424 -162 -685 -262 -261 -100 -626 -240 -810 -310 -341 -130 -1300 -497 -2025 -775 -875 -335 -1834 -702 -2095 -802 -151 -57 -360 -138 -465 -178 -104 -40 -284 -109 -400 -153 -115 -44 -424 -162 -685 -262 -261 -100 -626 -240 -810 -310 -184 -70 -760 -291 -1280 -490 -520 -199 -1096 -419 -1280 -490 -184 -70 -549 -210 -810 -310 -261 -100 -646 -247 -855 -327 -209 -80 -465 -178 -570 -218 -104 -40 -314 -120 -465 -178 -385 -147 -362 -137 -355 -156 4 -9 95 -245 202 -526 108 -280 199 -514 203 -519 5 -4 196 64 427 152 1758 674 2256 864 2473 947 91 34 426 163 745 285 319 122 654 251 745 285 136 52 740 283 1685 645 83 32 400 153 705 270 305 116 872 334 1260 482 997 382 1162 445 1275 488 55 21 390 149 745 285 355 136 719 275 810 310 91 35 530 202 975 373 446 171 1175 450 1620 620 446 171 1024 392 1285 492 725 278 936 359 1045 400 55 21 390 149 745 285 355 136 719 275 810 310 91 35 530 202 975 373 446 171 1098 420 1450 555 352 135 978 374 1390 532 413 158 941 360 1175 450 234 89 528 202 653 250 126 48 232 83 237 79 6 -8 123 -310 368 -956 20 -54 39 -98 42 -98 3 0 64 64 135 142 72 78 653 713 1293 1411 639 698 1160 1272 1157 1275 -4 4 -339 40 -620 67 -33 3 -152 14 -265 25 -113 11 -230 23 -260 25 -30 3 -93 10 -140 15 -47 5 -274 28 -505 50 -231 22 -487 47 -570 56 -82 8 -242 24 -355 34 -113 11 -245 24 -295 30 -49 5 -117 12 -150 15 -172 16 -576 56 -612 61 -24 4 -43 4 -43 1z"></path>
            <path id="pterXBjUh" d="M27030 20327 c0 -3 20 -56 44 -119 24 -62 92 -239 151 -393 148 -389 206 -539 211 -547 4 -7 -19 -16 -666 -264 -239 -91 -568 -217 -730 -279 -162 -62 -419 -160 -570 -218 -151 -58 -489 -187 -750 -287 -261 -100 -731 -280 -1045 -400 -1169 -447 -1872 -716 -2665 -1020 -448 -172 -968 -370 -1155 -442 -187 -71 -396 -151 -465 -178 -69 -26 -249 -95 -400 -153 -151 -58 -489 -187 -750 -287 -474 -181 -797 -305 -2530 -968 -503 -193 -1446 -554 -2095 -802 -649 -249 -1301 -498 -1450 -555 -148 -57 -454 -174 -680 -260 -766 -293 -1130 -433 -1340 -513 -115 -44 -1105 -423 -2200 -842 -1094 -419 -2111 -808 -2260 -865 -148 -57 -434 -166 -635 -243 -201 -77 -468 -179 -595 -227 -126 -48 -233 -90 -237 -94 -4 -3 42 -132 101 -286 59 -154 149 -390 201 -525 51 -135 96 -249 100 -253 4 -4 144 45 311 109 167 64 349 133 404 154 55 21 359 137 675 258 316 121 1077 412 1690 647 613 235 1372 525 1685 645 638 244 1544 591 2065 790 190 73 536 205 770 295 234 90 522 200 640 245 291 111 1764 675 2130 815 162 62 527 202 810 310 283 108 724 277 980 375 256 98 650 249 875 335 226 87 484 185 575 220 91 35 302 116 470 180 168 64 456 175 640 245 501 191 1777 679 2265 867 424 162 659 252 1715 656 294 113 902 346 1350 517 448 172 889 341 980 375 206 79 356 136 1373 525 474 181 821 309 826 304 5 -5 83 -205 175 -444 212 -556 230 -602 238 -604 7 -1 2588 2814 2588 2824 0 3 -8 6 -18 7 -45 3 -588 56 -902 88 -190 19 -507 50 -705 70 -198 19 -427 41 -510 50 -82 8 -337 33 -565 55 -228 23 -525 52 -660 65 -135 14 -274 27 -310 30 -36 3 -84 8 -107 12 -24 3 -43 3 -43 0z"></path>
        </g>
    </g>
    <g id="l4a9O8Dejp7mdCdiCSBj8Ka" fill="rgb(0,0,0)" style="transform: none;">
        <g>
            <path id="pyFzZQ4St" d="M40 29190 c0 -13 -7 -20 -20 -20 -20 0 -20 -7 -20 -14585 l0 -14585 45 0 45 0 0 14560 0 14560 15390 0 15390 0 0 45 0 45 -15415 0 c-15408 0 -15415 0 -15415 -20z"></path>
        </g>
    </g>
    <g id="l1gtRQiyYA5R7UTDiui4DXK" fill="rgb(46,46,46)" style="transform: none;">
        <g style="transform: none;"></g>
    </g>
</svg>