<svg 
    class="img-fluid" id="outputsvg" 
    xmlns="http://www.w3.org/2000/svg" 
    style="transform: matrix(0.3, 0, 0, 0.3, 0, 0); transform-origin: 50% 50%; cursor: move;" 
    width="3163" height="2921" viewBox="0 0 31630 29210">
    <g id="l6pbQ7vsy3KRvA0g94oRiHj" fill="rgb(127,127,127)" style="transform: none;">
        <g>
            <path id="pruCbMOmI" d="M0 29175 c0 -32 2 -35 30 -35 l30 0 0 -14570 0 -14570 15785 0 15785 0 0 14605 0 14605 -395 0 -395 0 0 -30 0 -30 -15385 0 -15385 0 0 30 c0 28 -3 30 -35 30 -33 0 -35 -2 -35 -35z m4861 -11994 c90 -43 398 -190 684 -326 286 -136 570 -271 630 -300 61 -29 200 -95 310 -148 110 -52 263 -125 340 -162 77 -37 176 -84 220 -105 131 -61 1326 -631 1509 -719 93 -44 170 -81 171 -81 1 0 96 -46 211 -102 l209 -103 7773 -3 7772 -2 0 555 c0 305 2 555 5 555 3 0 750 -372 1660 -827 l1655 -828 -1652 -827 c-909 -455 -1656 -827 -1660 -827 -5 -1 -8 249 -8 554 l0 555 -6550 0 -6550 0 0 -33 0 -32 273 -130 c149 -71 340 -161 422 -201 167 -80 734 -350 890 -424 209 -99 1298 -619 1505 -717 63 -31 156 -75 205 -98 99 -47 1286 -612 1485 -707 69 -33 161 -77 205 -98 44 -21 186 -88 315 -150 129 -62 276 -132 325 -155 50 -23 952 -453 2005 -955 1053 -502 1960 -934 2015 -960 85 -41 1573 -749 1900 -905 61 -29 182 -88 270 -130 88 -42 178 -79 200 -82 l41 -5 36 78 c33 71 296 624 395 830 l39 82 461 -592 c254 -325 623 -798 820 -1051 1117 -1431 1006 -1285 970 -1285 -49 0 -2585 -48 -3161 -60 -280 -6 -510 -9 -512 -7 -2 2 29 73 70 158 87 183 152 318 216 454 26 55 75 158 109 229 35 74 61 142 61 160 l-1 31 -762 363 c-419 199 -771 362 -781 362 -10 0 -24 7 -30 15 -8 11 -796 392 -1191 575 -33 15 -134 64 -225 107 -91 44 -419 200 -730 348 -311 147 -590 280 -620 295 -30 16 -140 69 -245 118 -104 49 -257 122 -340 162 -854 408 -1494 710 -1508 710 -9 0 -17 4 -17 8 0 5 -46 31 -102 57 -97 45 -224 106 -483 230 -185 88 -1584 755 -1680 800 -49 24 -148 71 -220 105 -71 34 -166 79 -210 100 -44 21 -350 167 -680 324 -330 157 -607 286 -617 286 -10 0 -18 4 -18 8 0 5 -46 31 -102 57 -192 91 -391 186 -450 215 -33 17 -68 30 -78 30 -10 0 -20 4 -22 10 -5 14 -1660 800 -1685 800 -13 0 -23 5 -23 10 0 12 -365 190 -391 190 -9 0 -19 4 -21 9 -1 6 -59 37 -128 69 -69 33 -282 135 -474 226 l-348 166 -2364 0 -2364 0 0 545 0 545 1150 0 1150 0 0 33 c0 33 -2 35 -112 87 -62 29 -183 87 -268 128 -85 41 -191 91 -235 112 -77 36 -156 74 -405 192 -449 215 -1186 566 -1237 590 l-63 29 29 57 c16 31 111 230 211 442 214 453 218 460 229 460 4 0 82 -35 172 -79z"></path>
        </g>
    </g>
    <g id="lBgSYQL6rdsdSTgoLDtsfH" fill="rgb(237,126,47)" style="transform: none;">
        <g>
            <path id="p1F4xcCxIi" d="M24660 15730 l0 -570 -7730 0 c-6849 0 -7735 2 -7767 15 -53 22 -2712 22 -2673 0 22 -12 -123 -14 -1127 -15 l-1153 0 0 -575 0 -575 2368 0 c2033 -1 2371 -3 2392 -15 21 -12 221 -14 1360 -14 1162 0 1332 2 1310 14 -22 12 838 14 6498 15 l6522 0 0 -570 c0 -314 2 -570 5 -570 10 0 3425 1710 3425 1715 0 5 -3415 1715 -3425 1715 -3 0 -5 -256 -5 -570z"></path>
        </g>
    </g>
    <g id="l2NhLzAw3VyMhKulMTN59Gb" fill="rgb(111,174,70)" style="transform: none;">
        <g>
            <path id="p14nk7NeWQ" d="M4645 17282 c-10 -21 -104 -219 -210 -442 -106 -223 -209 -438 -229 -479 -20 -41 -36 -76 -36 -78 0 -2 33 -18 72 -37 64 -29 905 -430 1258 -598 69 -33 161 -77 205 -98 44 -21 139 -66 210 -100 72 -34 166 -79 210 -100 44 -21 152 -72 239 -114 l159 -76 1336 1 c735 0 1329 3 1321 6 -8 4 -107 51 -219 105 -112 54 -205 98 -206 98 -1 0 -78 37 -171 81 -183 88 -1378 658 -1509 719 -44 21 -143 68 -220 105 -77 37 -230 110 -340 162 -110 53 -249 119 -310 148 -60 29 -348 166 -640 305 -291 139 -582 277 -645 307 -63 31 -147 70 -186 88 l-71 33 -18 -36z"></path>
            <path id="pKAI12YC1" d="M8951 14006 c3 -4 361 -175 822 -394 85 -40 116 -60 112 -70 -4 -11 1 -13 19 -8 32 8 396 -166 396 -190 0 -12 6 -15 23 -10 32 8 1690 -782 1682 -802 -4 -11 1 -13 19 -8 16 4 44 -4 84 -24 60 -29 258 -124 450 -215 74 -35 101 -53 97 -63 -4 -11 1 -13 18 -8 22 5 111 -36 1317 -611 52 -25 136 -65 185 -88 50 -24 158 -75 240 -114 83 -40 203 -97 268 -128 79 -38 116 -61 113 -70 -3 -7 1 -13 9 -13 8 0 15 4 15 9 0 5 269 -119 598 -276 328 -157 633 -302 677 -323 44 -21 145 -69 225 -107 80 -38 191 -91 248 -118 75 -35 101 -52 97 -63 -4 -11 0 -13 17 -8 21 5 394 -168 1533 -714 88 -42 259 -123 379 -181 143 -68 221 -110 224 -121 4 -18 32 -26 32 -9 0 5 269 -119 598 -276 328 -157 633 -302 677 -323 44 -21 150 -71 235 -112 85 -41 386 -184 669 -319 359 -170 516 -250 519 -262 3 -13 11 -17 27 -13 15 4 240 -99 776 -354 415 -198 758 -361 762 -363 5 -1 -28 -78 -72 -171 -45 -93 -81 -170 -81 -171 0 -1 -45 -95 -100 -209 -55 -114 -100 -209 -100 -211 0 -3 -29 -64 -65 -136 -36 -72 -65 -133 -65 -136 0 -4 126 -3 280 1 228 6 280 5 280 -6 0 -9 3 -10 8 -2 5 8 94 14 265 19 212 6 257 4 257 -7 0 -9 2 -10 8 -1 5 8 100 13 317 17 171 3 403 9 518 12 169 5 207 3 207 -8 0 -9 3 -10 8 -2 11 17 522 28 522 11 0 -9 2 -9 8 0 5 8 101 13 322 17 173 4 406 9 518 12 165 5 202 3 202 -8 0 -10 2 -10 8 -1 4 6 32 13 61 15 l54 3 -469 600 c-807 1035 -917 1176 -1409 1808 -264 339 -483 616 -486 617 -3 0 -19 -30 -36 -67 -17 -38 -113 -239 -213 -448 -100 -209 -195 -410 -212 -447 -27 -59 -33 -66 -52 -58 -11 4 -84 38 -161 75 -77 37 -194 93 -260 125 -186 89 -1798 857 -1910 910 -55 26 -962 458 -2015 960 -1053 502 -1955 932 -2005 955 -49 23 -196 93 -325 155 -129 62 -271 129 -315 150 -44 21 -136 65 -205 98 -199 95 -1386 660 -1485 707 -49 23 -143 68 -207 99 -222 106 -1294 616 -1503 716 -55 26 -248 118 -430 205 -181 86 -375 179 -430 205 -55 26 -243 115 -418 199 l-318 151 -1331 0 c-732 0 -1329 -2 -1327 -4z"></path>
        </g>
    </g>
    <g id="l3oZj71SrlrKvpQjzCewYYP" fill="rgb(0,0,0)" style="transform: none;">
        <g>
            <path id="pyFzZQ4St" d="M40 29190 c0 -13 -7 -20 -20 -20 -20 0 -20 -7 -20 -14585 l0 -14585 45 0 45 0 0 14560 0 14560 15390 0 15390 0 0 45 0 45 -15415 0 c-15408 0 -15415 0 -15415 -20z"></path>
        </g>
    </g>
</svg>