<svg 
    class="img-fluid" id="outputsvg" 
    xmlns="http://www.w3.org/2000/svg" 
    style="transform: matrix(0.3, 0, 0, 0.3, 0.453136, -34.187); transform-origin: 50% 50%; cursor: move; transition: none 0s ease 0s;" 
    width="3188" height="2921" viewBox="0 0 31880 29210">
    <g id="l5ekIj1TMemI2logI3dWopt" fill="rgb(127,127,127)" style="transform: none;">
        <g>
            <path id="phG6UohVC" d="M0 29175 c0 -32 2 -35 30 -35 l30 0 0 -14570 0 -14570 15910 0 15910 0 0 14605 0 14605 -520 0 -520 0 0 -30 0 -30 -15385 0 -15385 0 0 30 c0 28 -3 30 -35 30 -33 0 -35 -2 -35 -35z m26608 -9553 l1652 -827 -1655 -828 c-910 -455 -1657 -827 -1660 -827 -3 0 -5 250 -5 555 l0 555 -10225 0 -10225 0 0 545 0 545 10225 0 10225 0 0 555 c0 305 3 555 8 554 4 0 751 -372 1660 -827z m0 -4210 l1652 -827 -1655 -828 c-910 -455 -1657 -827 -1660 -827 -3 0 -5 250 -5 555 l0 555 -10225 0 -10225 0 0 545 0 545 10225 0 10225 0 0 555 c0 305 3 555 8 554 4 0 751 -372 1660 -827z"></path>
        </g>
    </g>
    <g id="l2lUoEcVgMR0yk4ztX1oS5C" fill="rgb(237,125,49)" style="transform: none;">
        <g>
            <path id="p14ovrwpRc" d="M24910 19940 l0 -570 -10225 0 -10225 0 0 -575 0 -575 10225 0 10225 0 0 -570 c0 -313 2 -570 5 -570 10 0 3425 1710 3425 1715 0 5 -3415 1715 -3425 1715 -3 0 -5 -256 -5 -570z"></path>
            <path id="p1A2dyUJhs" d="M24910 15730 l0 -570 -10225 0 -10225 0 0 -575 0 -575 10225 0 10225 0 0 -570 c0 -314 2 -570 5 -570 10 0 3425 1710 3425 1715 0 5 -3415 1715 -3425 1715 -3 0 -5 -256 -5 -570z"></path>
        </g>
    </g>
    <g id="l5y3gVBkmDzSpXkGuV5Bft2" fill="rgb(7,7,7)" style="transform: none;">
        <g>
            <path id="pyFzZQ4St" d="M40 29190 c0 -13 -7 -20 -20 -20 -20 0 -20 -7 -20 -14585 l0 -14585 45 0 45 0 0 14560 0 14560 15390 0 15390 0 0 45 0 45 -15415 0 c-15408 0 -15415 0 -15415 -20z"></path>
        </g>
    </g>
</svg>