<svg 
    class="img-fluid" id="outputsvg" 
    xmlns="http://www.w3.org/2000/svg" 
    style="transform: none; transform-origin: 50% 50%; cursor: move; transition: none 0s ease 0s;" 
    width="3296" height="2921" viewBox="0 0 32960 29210">
    <g id="l79yHRNKVxHA5wFFKWsNp0m" fill="rgb(191,191,191)" style="transform: none;">
        <g style="transform: none;">
            <path id="p59tGVtTW" d="M0 29175 c0 -32 2 -35 30 -35 l30 0 0 -14570 0 -14570 16450 0 16450 0 0 14605 0 14605 -1065 0 -1065 0 0 -30 0 -30 -15380 0 -15380 0 0 30 c0 28 -3 30 -35 30 -33 0 -35 -2 -35 -35z m24240 -7915 c140 -5 361 -14 490 -20 129 -5 357 -14 505 -20 149 -6 428 -17 620 -24 193 -8 667 -27 1055 -42 388 -15 706 -28 708 -30 3 -2 -188 -238 -913 -1129 -94 -115 -398 -489 -675 -830 -277 -341 -557 -685 -622 -765 -65 -80 -121 -144 -124 -143 -7 2 -49 93 -288 622 -86 189 -156 348 -156 353 0 4 -18 8 -39 8 -29 0 -168 -58 -567 -239 -291 -131 -1134 -512 -1874 -846 -740 -334 -1507 -681 -1705 -770 -407 -184 -2717 -1227 -4720 -2132 -737 -333 -1441 -651 -1565 -707 -124 -56 -433 -196 -687 -311 l-463 -209 0 -33 0 -33 6400 0 6400 0 0 560 0 560 1655 -827 c910 -456 1655 -830 1655 -833 0 -3 -745 -377 -1655 -833 l-1655 -827 0 555 0 555 -7679 0 -7679 0 -153 -69 c-85 -37 -644 -290 -1244 -561 -3095 -1399 -4743 -2144 -4771 -2156 l-31 -13 -186 412 c-102 227 -201 446 -220 487 l-35 76 1949 879 1949 880 0 33 0 32 -1175 0 -1175 0 0 545 0 545 2452 0 2451 0 851 384 c468 211 1344 607 1946 879 1088 492 3644 1646 7000 3162 2211 999 4027 1819 4063 1836 36 16 35 48 -2 131 -278 614 -411 909 -411 913 0 7 22 6 320 -5z"></path>
        </g>
    </g>
    <g id="l4icjrTRQPVURwyjkplBy0q" fill="rgb(190,0,0)" style="transform: none;">
        <g style="transform: none;">
            <path id="ptVfSCVjl" d="M23865 21301 c-2 -4 91 -216 206 -472 116 -255 221 -487 234 -515 l23 -52 -27 -12 c-34 -16 -1861 -841 -4061 -1835 -3356 -1516 -5912 -2670 -7000 -3162 -2934 -1326 -2793 -1263 -2845 -1263 -33 0 -72 -11 -129 -36 -70 -32 -290 -131 -466 -211 -30 -14 -100 -45 -155 -70 -55 -25 -125 -56 -155 -70 -30 -14 -170 -77 -310 -140 -140 -63 -280 -126 -310 -140 -30 -14 -100 -45 -155 -70 -55 -25 -113 -51 -130 -59 -16 -7 -199 -90 -405 -183 -345 -156 -371 -170 -333 -173 37 -3 -164 -96 -1917 -887 l-1959 -885 13 -30 c7 -17 68 -152 135 -301 68 -148 168 -370 223 -492 55 -123 102 -223 103 -223 2 0 32 13 67 29 34 15 994 449 2133 964 1139 514 2446 1105 2905 1312 1216 550 1135 515 1190 515 41 0 106 26 427 171 208 94 540 244 738 334 1515 683 1422 640 1380 645 -35 5 -2 21 426 214 255 116 565 256 689 312 124 56 828 374 1565 707 2003 905 4313 1948 4720 2132 198 89 965 436 1705 770 740 334 1583 715 1874 846 290 132 532 239 537 239 5 0 9 -4 9 -8 0 -5 72 -168 160 -363 310 -685 303 -670 316 -657 6 7 188 231 405 498 569 701 1430 1760 1811 2227 108 133 194 244 190 246 -4 3 -108 8 -232 11 -124 4 -247 9 -275 11 -27 2 -138 7 -245 10 -107 3 -229 7 -270 10 -41 2 -160 7 -265 10 -104 3 -210 8 -235 10 -25 2 -135 7 -245 10 -110 3 -231 8 -270 10 -38 2 -142 7 -230 10 -88 3 -209 8 -270 10 -60 2 -175 7 -255 10 -199 7 -367 14 -480 20 -52 3 -187 8 -300 11 -113 4 -215 7 -228 9 -12 1 -24 -1 -27 -4z"></path>
        </g>
    </g>
    <g id="l4grWZWDno3oNvPaywRQKeO" fill="rgb(237,125,49)" style="transform: none;">
        <g style="transform: none;">
            <path id="pFVHmBE8w" d="M25990 14565 l0 -575 -6376 0 -6376 0 -812 -366 c-906 -409 -1410 -637 -1596 -722 l-125 -57 7643 -3 7642 -2 0 -570 0 -570 1714 857 c943 472 1712 861 1709 866 -2 4 -774 392 -1714 862 l-1709 855 0 -575z"></path>
            <path id="p13TH0uQwG" d="M5540 13415 l0 -575 1179 0 1179 0 329 149 c180 81 348 157 373 169 25 11 90 40 145 65 55 25 125 56 155 70 30 14 170 77 310 140 140 63 280 126 310 140 30 14 100 45 155 70 55 25 125 56 155 70 241 109 381 173 480 217 63 28 117 53 119 56 2 2 -1097 4 -2442 4 l-2447 0 0 -575z"></path>
        </g>
    </g>
    <g id="l3w8ZRtRUYU3pp82lBFDKFi" fill="rgb(0,0,0)" style="transform: none;">
        <g style="transform: none;">
            <path id="pcCfAZHE9" d="M40 29190 c0 -13 -7 -20 -20 -20 -20 0 -20 -7 -20 -14585 l0 -14585 45 0 45 0 0 14560 0 14560 15385 0 15385 0 0 45 0 45 -15410 0 c-15403 0 -15410 0 -15410 -20z"></path>
        </g>
    </g>
    <g id="lUFXqCAVol0WnBH0YRH2Kc" fill="rgb(32,32,32)" style="transform: none;">
        <g style="transform: none;"></g>
    </g>
</svg>