<svg class="img-fluid" id="outputsvg" 
xmlns="http://www.w3.org/2000/svg" 
style="transform: none; transform-origin: 50% 50%; cursor: move;" 
width="100%" height="100%" viewBox="0 0 8000 8000">
    <g id="l4P4nTVZtc3RKVZdhMXDcDF" fill="rgb(255,255,255)" style="transform: none;">
        <g>
            <path id="p1CkhiybBo" d="M0 4000 l0 -4000 4000 0 4000 0 0 4000 0 4000 -4000 0 -4000 0 0 -4000z m4011 3486 c152 -33 289 -140 354 -278 19 -40 37 -85 40 -99 l7 -27 -139 -7 c-138 -8 -820 -1 -829 8 -8 8 43 137 72 180 72 105 195 193 310 221 76 18 105 19 185 2z m657 -811 c98 -29 180 -135 169 -218 -8 -58 -55 -127 -111 -162 l-49 -30 -734 -3 c-733 -2 -733 -2 -783 19 -90 39 -161 146 -144 216 24 100 98 169 194 184 25 3 351 7 726 8 587 1 688 -1 732 -14z m-2960 -749 c39 -21 467 -455 486 -493 22 -44 20 -62 -9 -106 -36 -52 -96 -81 -139 -67 -46 15 -511 485 -518 523 -11 61 68 157 129 157 13 0 36 -6 51 -14z m4571 -31 c36 -18 79 -69 87 -101 4 -13 1 -37 -5 -52 -18 -42 -500 -519 -533 -527 -16 -4 -39 -4 -52 -1 -36 9 -87 55 -102 93 -25 58 -3 88 244 337 125 125 241 237 257 247 36 23 66 24 104 4z m-1353 -50 c38 -22 50 -40 108 -155 132 -261 289 -517 391 -640 186 -223 240 -301 324 -463 71 -138 100 -212 145 -364 101 -349 108 -698 20 -1045 -124 -494 -440 -935 -884 -1233 -98 -65 -306 -170 -428 -215 -419 -153 -871 -160 -1297 -19 -202 67 -422 181 -595 310 -97 72 -281 248 -364 349 -257 311 -415 679 -461 1075 -19 163 -19 266 0 430 27 237 93 459 200 680 75 156 151 271 280 425 153 183 300 414 444 700 71 140 79 152 124 174 28 14 141 16 991 16 l959 0 43 -25z m-3561 -2086 c44 -12 89 -49 112 -93 22 -42 10 -86 -38 -132 l-40 -39 -324 -3 c-361 -3 -360 -3 -411 63 -22 30 -26 42 -21 81 7 68 53 111 132 125 68 11 546 10 590 -2z m5740 -10 c49 -14 102 -68 110 -113 9 -43 -13 -86 -62 -123 l-36 -28 -311 -3 c-307 -3 -312 -2 -356 20 -34 17 -51 35 -68 69 -21 43 -22 50 -9 80 18 42 65 87 103 99 44 13 581 12 629 -1z m-1246 -1733 c38 -20 458 -457 471 -490 27 -71 -85 -182 -157 -155 -32 11 -467 440 -489 481 -26 50 -18 86 30 134 35 36 50 44 80 44 20 0 49 -6 65 -14z m-3731 -30 c64 -33 99 -98 82 -150 -12 -37 -472 -500 -508 -511 -47 -14 -119 30 -152 94 -7 14 -9 37 -5 60 6 30 42 72 218 250 117 117 230 226 251 242 43 32 73 36 114 15z m1881 -794 c14 -10 34 -31 45 -46 20 -26 21 -40 21 -354 l0 -327 -24 -34 c-28 -39 -91 -70 -128 -63 -15 3 -46 24 -70 48 l-43 43 0 328 0 328 24 36 c45 67 118 83 175 41z"></path>
            <path id="pOqI41bk4" d="M3154 5442 c-6 -4 -43 -67 -83 -140 -117 -214 -220 -365 -416 -607 -136 -169 -207 -296 -269 -478 -79 -235 -112 -510 -87 -727 48 -415 208 -743 497 -1019 492 -470 1230 -582 1850 -280 467 227 805 683 883 1189 46 297 28 553 -56 815 -54 168 -146 346 -236 455 -235 285 -358 463 -480 690 -28 52 -55 98 -61 102 -6 4 -353 8 -771 8 -418 0 -765 -4 -771 -8z m817 -878 c44 -6 44 -6 93 -99 46 -86 52 -94 90 -105 23 -7 59 -21 80 -31 54 -26 97 -24 189 8 l78 27 68 -68 68 -68 -28 -81 c-16 -45 -28 -93 -29 -107 0 -14 17 -65 38 -115 l39 -90 96 -50 97 -50 0 -86 0 -86 -97 -49 -96 -49 -24 -65 c-13 -36 -28 -69 -33 -74 -18 -18 -10 -105 16 -182 l26 -77 -66 -66 -65 -65 -89 28 c-99 32 -126 31 -217 -7 -33 -13 -68 -27 -77 -30 -10 -4 -39 -49 -65 -102 l-48 -95 -85 0 -85 0 -48 95 c-26 53 -55 98 -65 101 -9 3 -48 19 -87 35 -86 36 -118 36 -219 3 l-78 -26 -66 65 -66 66 22 75 c30 101 28 136 -13 236 l-34 85 -95 49 -96 49 0 84 0 83 96 48 96 48 34 90 c18 49 34 103 34 119 0 17 -12 66 -26 109 l-25 79 66 67 67 68 86 -29 c104 -35 129 -36 190 -5 26 13 65 29 87 36 37 11 43 18 85 105 31 65 51 95 65 98 33 7 70 7 116 1z"></path>
            <path id="pWRV4Ui4x" d="M3805 3996 c-65 -21 -98 -41 -146 -93 -70 -75 -92 -142 -87 -273 4 -125 25 -176 100 -246 78 -73 124 -89 253 -89 98 0 116 3 166 26 117 55 187 161 196 296 13 183 -79 333 -230 378 -61 18 -197 19 -252 1z"></path>
        </g>
    </g>
    <g id="l3EctUNcLKazRVkltxFNMIc" fill="rgb(254,0,0)" style="transform: none;">
        <g>
            <path id="pKh5V5GdH" d="M3796 7514 c-197 -47 -372 -243 -388 -434 l-3 -35 523 -2 c592 -2 534 -12 507 90 -50 193 -204 342 -394 383 -83 17 -168 17 -245 -2z"></path>
            <path id="pIgpbWZcu" d="M3165 6711 c-132 -32 -212 -173 -175 -306 17 -61 77 -127 140 -154 l50 -21 763 2 764 3 49 30 c70 44 107 108 112 195 3 56 0 74 -21 117 -14 27 -42 64 -61 81 -72 63 -65 62 -866 61 -399 -1 -738 -5 -755 -8z"></path>
            <path id="p11GRoTGf4" d="M1645 5975 c-5 -2 -22 -6 -37 -9 -72 -16 -126 -108 -113 -193 7 -46 15 -56 243 -287 131 -131 251 -245 269 -252 108 -46 233 34 233 149 0 28 -8 63 -19 85 -30 57 -469 489 -506 497 -16 4 -37 8 -45 10 -8 2 -19 2 -25 0z"></path>
            <path id="pVFiSxfCe" d="M6215 5943 c-11 -2 -31 -6 -45 -9 -35 -8 -497 -467 -521 -519 -10 -22 -19 -54 -19 -72 -1 -116 123 -200 230 -157 38 16 501 470 526 516 18 34 18 111 0 146 -33 63 -112 107 -171 95z"></path>
            <path id="p15n8PYrQu" d="M2903 5884 c-45 -22 -53 -34 -124 -174 -141 -280 -293 -521 -436 -691 -160 -190 -239 -315 -330 -520 -67 -153 -127 -368 -158 -564 -14 -91 -14 -431 0 -535 55 -401 209 -755 461 -1060 83 -101 267 -277 364 -349 458 -340 1043 -482 1587 -387 664 118 1226 536 1524 1136 152 306 213 572 214 930 0 223 -21 376 -81 583 -45 152 -74 226 -145 364 -84 162 -138 240 -324 463 -102 123 -259 379 -391 640 -58 115 -70 133 -108 155 l-43 25 -989 0 c-877 0 -993 -2 -1021 -16z m1764 -472 c5 -4 32 -50 60 -102 122 -227 245 -405 480 -690 116 -141 228 -383 278 -601 20 -90 43 -304 39 -359 -19 -207 -29 -284 -50 -371 -147 -608 -641 -1082 -1254 -1203 -202 -40 -351 -42 -565 -6 -545 92 -1036 497 -1226 1013 -108 293 -132 573 -73 864 57 288 149 484 329 708 196 242 299 393 416 607 40 73 77 136 83 140 14 9 1469 9 1483 0z"></path>
            <path id="pMWlnmmu9" d="M3825 4593 c-14 -3 -34 -33 -65 -98 -42 -87 -48 -94 -85 -105 -22 -7 -61 -23 -87 -36 l-47 -24 -106 37 -106 37 -79 -79 c-44 -44 -80 -86 -80 -95 0 -8 14 -55 30 -104 l30 -88 -33 -90 -32 -90 -97 -49 -98 -49 0 -113 0 -114 96 -49 95 -49 36 -89 35 -89 -30 -101 -31 -101 81 -81 80 -82 105 35 104 35 72 -30 c40 -17 80 -33 89 -36 10 -3 38 -47 64 -98 26 -51 51 -96 56 -99 6 -4 24 -5 42 -4 17 2 65 3 106 4 l75 1 50 97 50 96 60 22 c33 12 71 27 85 34 21 10 40 6 130 -24 l104 -35 78 77 c43 43 78 83 78 89 0 7 -13 54 -30 104 -32 98 -35 121 -20 136 5 5 20 38 33 74 l24 65 96 49 97 49 0 116 0 116 -97 50 -96 50 -37 87 -37 87 35 102 34 101 -83 84 -84 83 -103 -35 -102 -36 -43 20 c-23 11 -60 25 -83 32 -38 11 -44 19 -92 110 l-52 97 -97 0 c-54 0 -107 -1 -118 -4z m237 -641 c56 -25 136 -102 161 -155 89 -188 -10 -405 -212 -464 -108 -31 -221 -2 -309 81 -67 63 -95 122 -100 216 -9 157 81 286 233 337 56 18 169 11 227 -15z"></path>
            <path id="ph7NEfyEP" d="M760 3793 c-57 -9 -71 -15 -104 -43 -62 -55 -71 -159 -19 -228 48 -64 50 -64 422 -64 198 0 346 4 361 10 38 15 87 72 98 114 23 86 -34 183 -123 207 -38 10 -574 14 -635 4z"></path><path id="p19pWylQRy" d="M6444 3779 c-42 -12 -101 -79 -110 -123 -15 -81 22 -157 91 -187 42 -19 65 -20 383 -17 l339 3 36 28 c53 40 70 79 65 147 -5 65 -32 111 -81 138 -28 15 -70 17 -362 19 -181 1 -344 -2 -361 -8z"></path>
            <path id="p8x27hvnD" d="M5744 2059 c-47 -13 -101 -78 -109 -132 -12 -79 10 -110 261 -359 247 -244 255 -249 341 -233 50 9 119 78 128 128 16 84 10 93 -227 339 -122 126 -234 236 -249 244 -36 18 -104 24 -145 13z"></path>
            <path id="p19cOGxfgd" d="M2049 2030 c-20 -4 -49 -16 -65 -27 -16 -12 -126 -120 -245 -240 -186 -188 -217 -224 -226 -261 -18 -72 7 -139 70 -186 35 -26 124 -33 163 -13 16 9 133 120 261 249 249 251 254 258 239 346 -14 88 -103 148 -197 132z"></path>
            <path id="p1HHwFW7QG" d="M3861 1234 c-18 -10 -44 -35 -58 -56 l-26 -38 1 -350 c1 -339 1 -351 22 -380 70 -98 208 -104 278 -12 l27 35 0 358 c0 346 -1 358 -21 385 -36 49 -70 67 -131 71 -41 3 -68 -1 -92 -13z"></path>
        </g>
    </g>
</svg>