<svg class="img-fluid" id="outputsvg" xmlns="http://www.w3.org/2000/svg" style="transform: matrix(0.6591, 0, 0, 0.6591, 0, 0); transform-origin: 50% 50%; cursor: move; max-height: none;" width="800" height="800" viewBox="0 0 8000 8000"><g id="l4YjLx0MsPE0Ujm1JZBP9CA" fill="rgb(255,255,255)" style="transform: none;"><g><path id="piy9Toewa" d="M0 4000 l0 -4000 4000 0 4000 0 0 4000 0 4000 -4000 0 -4000 0 0 -4000z m3994 3490 c152 -25 304 -140 371 -282 19 -40 38 -88 41 -105 l7 -33 -488 0 -487 0 6 25 c47 187 195 340 376 389 66 18 97 19 174 6z m714 -829 c77 -40 138 -136 129 -204 -8 -58 -55 -127 -111 -162 l-49 -30 -734 -3 c-730 -2 -733 -2 -783 19 -60 26 -124 93 -140 146 -23 75 20 164 104 221 l48 32 750 0 c717 0 750 -1 786 -19z m-2775 -948 c239 -238 277 -282 277 -323 0 -39 -39 -91 -88 -118 -36 -20 -47 -22 -75 -13 -39 13 -500 471 -516 513 -28 74 60 174 143 164 36 -4 60 -25 259 -223z m4346 182 c36 -18 79 -69 87 -101 4 -13 1 -37 -5 -52 -18 -42 -500 -519 -533 -527 -16 -4 -39 -4 -52 -1 -36 9 -87 55 -102 93 -25 58 -3 88 244 337 125 125 241 237 257 247 36 23 66 24 104 4z m-1343 -52 c20 -14 47 -54 74 -110 123 -249 316 -566 419 -688 174 -204 263 -337 348 -515 87 -181 144 -369 180 -585 23 -143 23 -405 -1 -563 -70 -458 -285 -869 -627 -1197 -276 -265 -614 -446 -989 -529 -179 -39 -294 -50 -490 -43 -277 10 -531 73 -785 196 -224 108 -377 214 -554 386 -130 126 -203 212 -288 340 -416 623 -464 1356 -134 2030 67 137 152 269 237 369 170 198 320 428 473 726 62 121 88 161 117 183 l37 27 976 -2 976 -3 31 -22z m-3511 -2114 c48 -43 68 -83 61 -123 -6 -32 -52 -84 -93 -105 -15 -7 -123 -11 -333 -11 -343 0 -347 1 -394 62 -40 54 -36 116 12 160 51 47 52 47 389 48 l322 0 36 -31z m5680 20 c49 -14 102 -68 110 -113 9 -43 -13 -86 -62 -123 l-36 -28 -311 -3 c-307 -3 -312 -2 -356 20 -59 30 -97 99 -80 144 15 38 57 83 95 100 39 17 579 20 640 3z m-1246 -1733 c38 -20 458 -457 471 -490 13 -34 -5 -80 -47 -119 -39 -37 -82 -48 -119 -32 -35 16 -467 448 -488 488 -18 36 -7 79 31 120 46 48 99 60 152 33z m-3736 -27 c62 -32 106 -104 92 -151 -11 -36 -474 -496 -511 -508 -77 -26 -174 66 -159 149 5 30 42 71 218 250 117 117 230 226 251 242 41 31 74 36 109 18z m1878 -792 c18 -12 44 -38 57 -57 l23 -34 -3 -321 c-3 -320 -3 -320 -27 -354 -13 -18 -42 -41 -64 -51 -52 -24 -90 -13 -139 39 l-38 40 0 329 c0 325 0 329 23 362 24 36 79 70 113 70 12 0 36 -10 55 -23z"></path><path id="pvq8rNxnR" d="M3134 5418 c-120 -236 -259 -448 -437 -671 -177 -221 -248 -341 -313 -535 -203 -606 -66 -1250 360 -1691 281 -290 642 -458 1058 -492 350 -29 745 74 1030 267 243 165 418 365 550 628 228 454 229 1034 3 1488 -60 118 -98 175 -195 293 -183 221 -357 478 -455 675 -15 30 -33 58 -39 62 -6 4 -356 8 -778 8 l-767 0 -17 -32z m926 -947 c39 -80 49 -92 80 -102 19 -7 57 -22 84 -35 64 -31 100 -30 198 3 l79 27 68 -68 69 -68 -29 -86 c-16 -47 -29 -95 -29 -107 0 -11 17 -61 39 -110 l39 -90 96 -49 96 -49 0 -87 0 -86 -96 -49 -97 -50 -23 -64 c-12 -35 -27 -68 -33 -74 -19 -19 -12 -104 15 -183 l26 -77 -66 -66 -66 -66 -84 29 c-96 32 -130 32 -221 -6 -33 -14 -68 -28 -77 -31 -10 -4 -39 -49 -65 -102 l-48 -95 -86 0 -87 0 -48 96 c-26 53 -55 98 -63 101 -9 2 -47 18 -86 34 -86 36 -118 36 -219 3 l-78 -26 -66 65 -65 66 21 74 c30 101 28 137 -12 237 l-35 85 -95 49 -96 49 0 83 0 84 96 48 96 48 34 90 c41 107 42 141 8 235 l-26 72 67 67 67 68 81 -25 c99 -30 155 -27 252 14 l70 29 45 91 45 91 85 4 c47 2 87 2 90 1 3 -1 25 -42 50 -92z"></path><path id="pGQ8EAopL" d="M3775 3986 c-130 -55 -205 -175 -205 -327 0 -138 27 -208 110 -283 71 -64 120 -81 235 -81 55 0 118 6 141 12 105 33 201 139 225 251 28 136 -15 291 -103 367 -75 63 -120 79 -238 83 -93 2 -112 0 -165 -22z"></path></g></g><g id="l1uQxsYQYUJziZvqX9iPgBo" fill="rgb(145,207,79)" style="transform: none;"><g><path id="pX4pQrB11" d="M3790 7514 c-195 -52 -365 -245 -382 -430 l-3 -39 523 -3 522 -2 0 23 c0 36 -29 126 -62 192 -103 204 -371 320 -598 259z"></path><path id="p14IGcjaFX" d="M3161 6709 c-95 -19 -169 -111 -178 -221 -7 -76 15 -134 71 -186 83 -76 38 -73 892 -70 l761 3 49 30 c131 82 153 262 45 378 -14 16 -43 38 -64 49 -37 19 -64 19 -792 21 -415 1 -768 -1 -784 -4z"></path><path id="pUDBnn7F3" d="M1625 5971 c-68 -16 -108 -55 -126 -121 -25 -95 -22 -100 239 -364 131 -131 251 -245 269 -252 73 -31 164 -3 210 65 28 42 32 133 7 171 -9 14 -121 129 -247 257 -172 173 -239 234 -262 238 -16 4 -37 8 -45 10 -8 1 -28 0 -45 -4z"></path><path id="pNKnIWvyV" d="M6215 5945 c-5 -2 -23 -6 -40 -10 -40 -9 -499 -462 -526 -520 -43 -93 -5 -189 91 -228 39 -16 97 -14 132 4 32 16 496 478 514 511 18 35 18 111 -1 147 -20 39 -69 78 -113 91 -39 10 -41 11 -57 5z"></path><path id="pVDkrywMo" d="M2886 5873 c-29 -22 -55 -62 -117 -183 -153 -298 -303 -528 -473 -726 -169 -198 -318 -496 -390 -782 -78 -305 -86 -646 -24 -940 68 -325 221 -644 428 -897 78 -95 268 -278 362 -348 296 -221 656 -366 1009 -407 115 -14 374 -13 489 1 118 14 296 54 416 94 115 38 316 131 419 195 414 254 747 671 895 1120 78 236 103 394 104 665 1 221 -13 335 -64 532 -88 332 -215 564 -481 878 -103 122 -296 439 -419 688 -27 56 -54 96 -74 110 l-31 22 -1006 3 -1006 2 -37 -27z m1780 -461 c6 -4 24 -32 39 -62 98 -197 272 -454 455 -675 97 -118 135 -175 195 -293 191 -384 219 -839 75 -1247 -142 -400 -440 -736 -813 -914 -256 -123 -554 -183 -800 -161 -406 35 -766 205 -1043 491 -253 262 -397 573 -444 963 -29 241 28 565 146 823 53 117 114 210 251 380 178 223 317 435 437 671 l17 32 737 0 c405 0 742 -4 748 -8z"></path><path id="p171hNLcHW" d="M3870 4592 l-65 -4 -45 -91 -45 -91 -70 -29 c-38 -16 -80 -31 -92 -34 -11 -3 -67 10 -123 27 l-102 33 -83 -83 -83 -83 35 -97 35 -97 -34 -92 -33 -93 -97 -49 -98 -49 0 -114 0 -113 96 -49 96 -49 35 -90 36 -89 -31 -101 -31 -100 81 -81 80 -82 105 35 104 35 72 -30 c40 -17 79 -33 88 -35 8 -3 37 -48 63 -101 27 -53 53 -96 60 -97 75 -4 221 1 224 7 1 5 24 49 50 98 47 89 47 89 107 111 33 12 72 27 86 34 22 11 39 8 129 -24 l104 -36 78 78 c43 43 78 84 78 93 0 8 -13 53 -30 100 -32 92 -36 120 -19 137 6 6 21 39 33 74 l23 64 97 50 96 49 0 116 0 117 -96 49 -96 49 -37 85 -37 85 34 104 35 103 -84 84 -84 83 -103 -35 -104 -35 -51 24 c-29 13 -68 29 -87 36 -31 10 -41 23 -81 104 l-47 92 -53 0 c-30 0 -83 -2 -119 -3z m191 -640 c103 -50 179 -153 194 -263 21 -145 -87 -309 -229 -351 -66 -20 -174 -16 -227 9 -91 41 -165 127 -187 215 -41 164 40 329 193 394 76 32 186 30 256 -4z"></path><path id="p7sfM2tCD" d="M745 3789 c-22 -3 -49 -10 -60 -16 -84 -47 -109 -172 -49 -250 47 -62 48 -62 421 -64 371 -1 370 -1 424 58 44 47 55 124 25 181 -22 42 -82 92 -114 94 -79 4 -613 2 -647 -3z"></path><path id="pNjk09MRq" d="M6435 3776 c-43 -19 -93 -79 -101 -121 -15 -80 22 -156 91 -186 42 -19 65 -20 383 -17 l339 3 36 28 c53 40 70 79 65 147 -5 65 -32 111 -81 138 -28 15 -71 17 -367 19 -263 2 -342 0 -365 -11z"></path><path id="p91MRqaro" d="M5742 2057 c-46 -14 -98 -76 -107 -126 -14 -83 -9 -90 243 -343 253 -255 267 -265 350 -253 60 9 127 71 137 128 16 84 10 93 -227 339 -122 126 -234 236 -249 244 -37 18 -105 24 -147 11z"></path><path id="pFP2dmF6l" d="M2065 2033 c-11 -2 -31 -6 -45 -9 -15 -3 -118 -98 -258 -237 -209 -208 -234 -237 -247 -281 -41 -138 96 -259 228 -202 46 20 494 474 503 509 10 43 -1 116 -23 145 -39 52 -105 84 -158 75z"></path><path id="p14YCTPUcs" d="M3880 1243 c-32 -12 -71 -46 -85 -74 -13 -24 -15 -87 -16 -379 0 -217 4 -357 10 -368 6 -11 26 -33 45 -50 70 -62 187 -49 244 26 l27 35 3 352 3 351 -23 34 c-37 55 -83 80 -142 79 -28 0 -58 -3 -66 -6z"></path></g></g></svg>