<?xml version="1.0" encoding="UTF-8" standalone="no"?>
<!DOCTYPE svg PUBLIC "-//W3C//DTD SVG 1.1//EN" "http://www.w3.org/Graphics/SVG/1.1/DTD/svg11.dtd">
<svg width="100%" height="100%" viewBox="0 0 76 76" version="1.1" xmlns="http://www.w3.org/2000/svg" xmlns:xlink="http://www.w3.org/1999/xlink" xml:space="preserve" xmlns:serif="http://www.serif.com/" style="fill-rule:evenodd;clip-rule:evenodd;stroke-linejoin:round;stroke-miterlimit:2;">
    <g transform="matrix(1,0,0,1,-598.43,-322.099)">
        <g transform="matrix(0.255356,0,0,0.255356,473.385,268.298)">
            <path d="M599.854,336.312C599.854,349.119 589.473,359.5 576.667,359.5C563.861,359.5 553.479,349.119 553.479,336.312C553.479,323.506 563.861,313.125 576.667,313.125C589.473,313.125 599.854,323.506 599.854,336.312Z" style="fill-rule:nonzero;"/>
        </g>
        <g transform="matrix(0.255356,0,0,0.255356,473.385,268.298)">
            <path d="M723.521,336.312C723.521,349.119 713.139,359.5 700.333,359.5C687.527,359.5 677.146,349.119 677.146,336.312C677.146,323.506 687.527,313.125 700.333,313.125C713.139,313.125 723.521,323.506 723.521,336.312Z" style="fill-rule:nonzero;"/>
        </g>
        <g transform="matrix(0.255356,0,0,0.255356,473.385,268.298)">
            <path d="M708.835,409.74C706.13,409.74 703.811,410.899 702.652,412.831C687.967,432.154 664.779,444.134 638.5,444.134C612.221,444.134 589.42,432.154 574.348,412.831C572.802,410.899 570.483,409.74 568.165,409.74C563.914,409.74 560.435,413.218 560.435,417.469C560.435,419.015 560.822,420.56 561.981,422.106C579.758,445.294 607.197,459.979 638.5,459.979C669.803,459.979 697.242,445.294 715.019,422.106C715.792,420.947 716.565,419.401 716.565,417.469C716.565,413.218 713.086,409.74 708.835,409.74Z" style="fill-rule:nonzero;"/>
        </g>
        <g transform="matrix(0.255356,0,0,0.255356,473.385,268.298)">
            <path d="M638.5,228.104C710.768,228.104 769.896,287.232 769.896,359.5C769.896,431.768 710.768,490.896 638.5,490.896C566.232,490.896 507.104,431.768 507.104,359.5C507.104,287.232 566.232,228.104 638.5,228.104M638.5,212.646C557.344,212.646 491.646,278.344 491.646,359.5C491.646,440.656 557.344,506.354 638.5,506.354C719.656,506.354 785.354,440.656 785.354,359.5C785.354,278.344 719.656,212.646 638.5,212.646Z" style="fill-rule:nonzero;"/>
        </g>
    </g>
</svg>
