<?xml version="1.0" encoding="UTF-8" standalone="no"?>
<!DOCTYPE svg PUBLIC "-//W3C//DTD SVG 1.1//EN" "http://www.w3.org/Graphics/SVG/1.1/DTD/svg11.dtd">
<svg width="100%" height="100%" viewBox="0 0 76 76" version="1.1" xmlns="http://www.w3.org/2000/svg" xmlns:xlink="http://www.w3.org/1999/xlink" xml:space="preserve" xmlns:serif="http://www.serif.com/" style="fill-rule:evenodd;clip-rule:evenodd;stroke-linejoin:round;stroke-miterlimit:2;">
    <g transform="matrix(0.256744,0,0,0.256744,-229.435,-54.2994)">
        <path d="M1041.64,228.812C1113.82,228.812 1172.33,287.323 1172.33,359.5C1172.33,431.677 1113.82,490.188 1041.64,490.188C969.465,490.188 910.955,431.677 910.955,359.5C911.037,287.357 969.5,228.895 1041.64,228.812M1041.64,213.438C960.974,213.438 895.58,278.832 895.58,359.5C895.58,440.168 960.974,505.562 1041.64,505.562C1122.31,505.562 1187.7,440.168 1187.7,359.5C1187.7,278.832 1122.31,213.438 1041.64,213.438Z" style="fill-rule:nonzero;"/>
        <path d="M1106.99,405.625L976.298,405.625C972.053,405.625 968.611,402.183 968.611,397.938C968.611,393.692 972.053,390.25 976.298,390.25L1106.99,390.25C1111.23,390.25 1114.67,393.692 1114.67,397.938C1114.67,402.183 1111.23,405.625 1106.99,405.625Z" style="fill-rule:nonzero;"/>
        <path d="M968.611,328.75C968.611,324.504 972.053,321.062 976.298,321.062L1014.74,321.062C1018.98,321.062 1022.42,324.504 1022.42,328.75C1022.42,332.996 1018.98,336.438 1014.74,336.438L976.298,336.438C972.053,336.438 968.611,332.996 968.611,328.75Z" style="fill-rule:nonzero;"/>
        <path d="M1106.99,336.438L1068.55,336.438C1064.3,336.438 1060.86,332.996 1060.86,328.75C1060.86,324.504 1064.3,321.062 1068.55,321.062L1106.99,321.062C1111.23,321.062 1114.67,324.504 1114.67,328.75C1114.67,332.996 1111.23,336.438 1106.99,336.438Z" style="fill-rule:nonzero;"/>
    </g>
</svg>
