<svg 
    class="img-fluid" id="outputsvg" xmlns="http://www.w3.org/2000/svg" 
    style="transform: none; transform-origin: 50% 50%; cursor: move;" 
    width="3088" height="2921" viewBox="0 0 30880 29210">
    <g id="l5DdFkpPRHJgiCZWfj213LK" fill="rgb(255,255,255)" style="transform: none;">
        <g>
            <path id="pzLb3Vsr2" d="M0 29175 c0 -32 2 -35 30 -35 l30 0 0 -14570 0 -14570 15410 0 15410 0 0 14605 c0 12976 -2 14605 -15 14605 -10 0 -15 -10 -15 -30 l0 -30 -15390 0 -15390 0 0 30 c0 28 -3 30 -35 30 -33 0 -35 -2 -35 -35z m4930 -10028 c69 -32 1605 -763 1890 -900 152 -72 305 -145 425 -202 169 -80 1139 -542 1299 -619 87 -42 160 -76 161 -76 1 0 92 -43 201 -96 110 -53 231 -111 269 -129 67 -31 3736 -1779 4015 -1913 74 -35 171 -81 215 -102 67 -32 867 -413 1255 -598 180 -85 317 -151 415 -197 50 -23 153 -73 230 -110 77 -37 176 -84 220 -105 44 -20 508 -241 1030 -490 523 -249 1000 -477 1060 -505 61 -29 349 -166 640 -305 292 -139 580 -276 640 -305 61 -29 632 -301 1270 -605 638 -304 1210 -577 1270 -605 588 -280 1616 -770 1715 -817 69 -33 195 -93 280 -134 89 -42 169 -74 186 -74 28 0 33 6 62 68 31 67 326 687 399 838 l39 82 317 -407 c174 -223 687 -881 1140 -1461 453 -580 824 -1056 823 -1057 -1 -1 -489 -11 -1086 -22 -597 -12 -1429 -28 -1849 -36 -420 -8 -766 -13 -768 -12 -3 4 30 74 199 427 33 69 75 157 93 195 18 39 63 132 99 209 39 82 66 151 66 170 -1 30 -5 33 -128 91 -70 33 -199 94 -287 136 -88 42 -207 99 -265 126 -58 28 -391 186 -740 353 -349 166 -680 324 -735 350 -55 26 -248 118 -430 205 -181 86 -375 179 -430 205 -55 26 -480 228 -945 450 -465 221 -894 426 -955 455 -383 182 -1399 666 -1495 712 -63 30 -205 98 -315 150 -110 53 -249 119 -310 148 -60 29 -344 164 -630 300 -286 136 -594 283 -684 326 -90 44 -165 79 -167 79 -1 0 -100 47 -219 105 -120 58 -218 105 -220 105 -1 0 -74 34 -161 76 -200 96 -1182 564 -1289 614 -44 21 -147 70 -230 110 -82 40 -181 87 -220 105 -38 18 -126 60 -195 93 -292 139 -3522 1678 -3595 1712 -44 21 -143 68 -220 105 -112 54 -842 401 -1720 820 -60 28 -537 256 -1060 505 -993 473 -1120 533 -1222 581 l-63 30 24 47 c13 26 44 90 69 142 25 52 95 201 157 330 61 129 134 283 162 342 l51 107 86 -44 c48 -24 121 -59 161 -78z m-80 -4170 c52 -25 154 -73 225 -107 72 -34 166 -79 210 -100 44 -21 319 -151 610 -290 292 -139 580 -276 640 -305 61 -29 200 -95 310 -148 110 -52 252 -120 315 -150 110 -52 1266 -603 1495 -712 175 -83 2418 -1152 2545 -1213 199 -95 342 -163 435 -207 50 -23 475 -226 945 -450 470 -224 900 -429 955 -455 166 -79 1361 -648 1495 -712 69 -33 157 -75 195 -93 39 -18 138 -65 220 -105 83 -40 186 -89 230 -110 75 -35 988 -470 1265 -602 69 -33 161 -77 205 -98 44 -21 186 -88 315 -150 129 -62 276 -132 325 -155 110 -52 1102 -525 1275 -607 69 -33 157 -75 195 -93 39 -18 138 -65 220 -105 142 -68 206 -99 428 -204 85 -40 1004 -478 1267 -604 63 -30 162 -77 220 -104 58 -28 157 -75 220 -105 63 -31 156 -74 205 -98 50 -23 423 -201 830 -395 407 -194 781 -372 832 -396 62 -30 105 -44 133 -44 37 0 42 3 55 33 7 18 61 131 119 251 58 120 106 220 106 221 0 2 40 88 90 191 49 104 100 211 113 237 l22 48 306 -393 c169 -216 459 -589 646 -828 186 -239 481 -617 655 -840 174 -223 397 -508 496 -635 l179 -230 -86 -3 c-171 -6 -3616 -70 -3619 -68 -2 3 38 88 187 400 39 81 71 149 71 151 0 1 45 95 100 209 64 132 100 218 100 239 0 31 -4 35 -87 74 -49 22 -576 273 -1173 558 -597 284 -1130 538 -1185 565 -607 289 -1604 764 -1695 807 -103 50 -314 150 -625 298 -60 29 -823 392 -1695 807 -872 416 -1637 780 -1700 810 -63 30 -587 280 -1165 555 -577 275 -1102 525 -1165 555 -63 30 -925 441 -1915 913 -990 472 -1836 875 -1880 895 -44 21 -143 68 -220 105 -77 37 -230 110 -340 162 -110 53 -249 119 -310 148 -452 215 -1188 566 -1270 605 -55 26 -485 231 -955 455 -470 224 -886 422 -925 440 -38 18 -144 69 -235 112 -91 44 -215 103 -277 132 l-111 53 63 132 c107 225 279 586 340 713 l58 122 36 -18 c20 -11 79 -39 131 -64z"></path>
        </g>
    </g>
    <g id="l5VKreQOegMIdHD6ZhiZ54M" fill="rgb(112,173,70)" style="transform: none;">
        <g>
            <path id="pYOh72pSQ" d="M4600 19187 c-35 -73 -110 -231 -168 -352 -179 -377 -189 -398 -226 -474 -20 -41 -36 -76 -36 -78 0 -2 33 -18 72 -37 106 -49 186 -87 1233 -586 523 -249 1000 -477 1060 -505 878 -419 1608 -766 1720 -820 77 -37 176 -84 220 -105 73 -34 3303 -1573 3595 -1712 69 -33 157 -75 195 -93 39 -18 138 -65 220 -105 83 -40 186 -89 230 -110 107 -50 1089 -518 1289 -614 87 -42 160 -76 161 -76 2 0 100 -47 220 -105 119 -58 218 -105 219 -105 2 0 77 -35 167 -79 90 -43 398 -190 684 -326 286 -136 570 -271 630 -300 61 -29 200 -95 310 -148 110 -52 252 -120 315 -150 96 -46 1112 -530 1495 -712 61 -29 490 -234 955 -455 465 -222 890 -424 945 -450 55 -26 249 -119 430 -205 182 -87 375 -179 430 -205 129 -62 1340 -638 1715 -817 69 -33 195 -93 280 -133 85 -40 156 -74 158 -75 1 -1 -33 -78 -78 -170 -44 -92 -80 -169 -80 -170 0 -1 -43 -92 -96 -201 -53 -110 -110 -228 -126 -264 -17 -36 -48 -100 -69 -144 -22 -43 -39 -81 -39 -83 0 -5 226 -2 860 12 124 3 365 7 535 10 171 3 420 7 555 10 135 3 369 7 520 10 151 3 381 7 510 10 129 3 375 8 545 11 171 3 311 7 313 9 2 1 -455 589 -1014 1306 -560 717 -1090 1397 -1178 1511 -89 114 -163 207 -166 208 -3 0 -20 -30 -37 -67 -17 -38 -113 -239 -213 -448 -100 -209 -196 -410 -213 -448 l-32 -67 -185 88 c-102 49 -228 109 -280 134 -52 25 -428 204 -835 398 -407 194 -789 376 -850 405 -60 28 -632 301 -1270 605 -638 304 -1209 576 -1270 605 -60 29 -348 166 -640 305 -291 139 -579 276 -640 305 -60 28 -537 256 -1060 505 -522 249 -986 470 -1030 490 -44 21 -143 68 -220 105 -77 37 -180 87 -230 110 -98 46 -235 112 -415 197 -388 185 -1188 566 -1255 598 -44 21 -141 67 -215 102 -279 134 -3948 1882 -4015 1913 -38 18 -159 76 -269 129 -109 53 -200 96 -201 96 -1 0 -74 34 -161 76 -160 77 -1130 539 -1299 619 -120 57 -273 130 -425 202 -69 33 -505 241 -970 463 -465 221 -906 431 -980 467 -74 36 -158 76 -186 88 l-51 24 -63 -132z"></path>
            <path id="pX6wx7CuN" d="M4602 14983 c-33 -71 -108 -227 -165 -348 -58 -121 -141 -296 -186 -389 -45 -93 -79 -171 -77 -173 2 -3 80 -41 173 -85 304 -145 357 -170 448 -213 50 -23 475 -226 945 -450 470 -224 900 -429 955 -455 82 -39 818 -390 1270 -605 61 -29 200 -95 310 -148 110 -52 263 -125 340 -162 77 -37 176 -84 220 -105 44 -20 890 -423 1880 -895 990 -472 1852 -883 1915 -913 63 -30 588 -280 1165 -555 578 -275 1102 -525 1165 -555 63 -30 828 -394 1700 -810 872 -415 1635 -778 1695 -807 311 -148 522 -248 625 -298 63 -30 448 -213 855 -407 407 -194 790 -376 850 -405 1701 -810 2239 -1067 2325 -1108 58 -27 106 -51 108 -52 2 -1 -42 -96 -98 -210 -55 -114 -100 -209 -100 -210 0 -3 -48 -104 -207 -435 -36 -74 -69 -146 -74 -158 l-9 -24 262 6 c331 8 681 15 1053 21 160 3 398 7 530 10 132 3 377 7 545 10 168 3 397 7 510 10 113 3 369 8 570 11 201 3 366 8 368 9 2 2 -84 115 -190 252 -904 1158 -1359 1740 -1801 2308 -197 253 -362 461 -366 463 -4 1 -25 -35 -46 -80 -21 -46 -76 -161 -122 -257 -46 -95 -83 -174 -83 -176 0 -1 -48 -101 -106 -221 -58 -120 -112 -233 -119 -251 -8 -18 -19 -33 -25 -33 -7 0 -53 20 -103 44 -51 24 -425 202 -832 396 -407 194 -780 372 -830 395 -49 24 -142 67 -205 98 -63 30 -162 77 -220 105 -58 27 -157 74 -220 104 -263 126 -1182 564 -1267 604 -222 105 -286 136 -428 204 -82 40 -181 87 -220 105 -38 18 -126 60 -195 93 -173 82 -1165 555 -1275 607 -49 23 -196 93 -325 155 -129 62 -271 129 -315 150 -44 21 -136 65 -205 98 -277 132 -1190 567 -1265 602 -44 21 -147 70 -230 110 -82 40 -181 87 -220 105 -38 18 -126 60 -195 93 -134 64 -1329 633 -1495 712 -55 26 -485 231 -955 455 -470 224 -895 427 -945 450 -93 44 -236 112 -435 207 -127 61 -2370 1130 -2545 1213 -229 109 -1385 660 -1495 712 -63 30 -205 98 -315 150 -110 53 -249 119 -310 148 -761 363 -1186 565 -1260 600 -49 23 -133 63 -185 88 -52 24 -175 83 -274 131 -98 47 -179 86 -181 86 -1 0 -29 -57 -63 -127z"></path>
        </g>
    </g>
    <g id="l2yDCBDUJgae8atzF6CXAwb" fill="rgb(0,0,0)" style="transform: none;">
        <g>
            <path id="pyFzZQ4St" d="M40 29190 c0 -13 -7 -20 -20 -20 -20 0 -20 -7 -20 -14585 l0 -14585 45 0 45 0 0 14560 0 14560 15390 0 15390 0 0 45 0 45 -15415 0 c-15408 0 -15415 0 -15415 -20z"></path>
        </g>
    </g>
</svg>