<?xml version="1.0" encoding="UTF-8" standalone="no"?>
<!DOCTYPE svg PUBLIC "-//W3C//DTD SVG 1.1//EN" "http://www.w3.org/Graphics/SVG/1.1/DTD/svg11.dtd">
<svg width="100%" height="100%" viewBox="0 0 800 335" version="1.1" xmlns="http://www.w3.org/2000/svg" xmlns:xlink="http://www.w3.org/1999/xlink" xml:space="preserve" xmlns:serif="http://www.serif.com/" style="fill-rule:evenodd;clip-rule:evenodd;stroke-linejoin:round;stroke-miterlimit:2;">
    <g transform="matrix(0.529527,0,0,0.529527,-12.2153,-30.152)">
        <g id="l4sL1MFHDw8naWZ0E9UXRRU">
            <g>
                <g>
                    <path id="pfPyVokz7" d="M1204.9,647.7C1190.8,643.7 1182.5,633.1 1179.9,615.7C1176.9,595.4 1185.4,576.4 1200.9,569.1C1205.8,566.8 1207.7,566.5 1216.5,566.5C1225.3,566.6 1227.2,566.9 1232.5,569.3C1240.1,572.8 1244.4,577 1248.1,584.2C1251,590 1254.4,605.6 1253.8,610.8L1253.5,613.5L1228,613.8C1214,613.9 1202.2,614.4 1201.8,614.8C1200.2,616.4 1203.9,625.5 1207.4,628.9C1210.3,631.8 1211.8,632.4 1216.2,632.7C1219.4,632.9 1222.5,632.6 1224,631.8C1226.2,630.6 1230.3,625.5 1231.2,622.8C1231.5,622 1234,622 1240,622.9C1251,624.5 1252,624.8 1252,626.9C1252,629.5 1246.9,637.1 1242.5,640.9C1236.1,646.5 1230.8,648.3 1219.5,648.7C1213.3,648.9 1207.7,648.5 1204.9,647.7ZM1232,597.8C1231.9,592.8 1228.6,586.4 1225.1,584.6C1221.3,582.6 1212.8,582.5 1209.1,584.5C1204.6,586.8 1200.2,597.8 1202.7,600.3C1203,600.7 1209.8,601 1217.7,601L1232,601L1232,597.8Z" style="fill:rgb(38,72,111);fill-rule:nonzero;"/>
                    <path id="p17CbsgSfo" d="M1496.4,647.2C1488.8,643.6 1487,635.6 1487,605.9L1487,585.1L1482.3,584.8L1477.5,584.5L1477.5,568.5L1482.3,568.2L1487,567.9L1487,552.1L1496.5,546.5C1501.7,543.5 1506.7,540.7 1507.5,540.4C1508.8,539.9 1509,541.7 1509,553.9L1509,568L1523,568L1523,585L1509,585L1509,606.5C1509,627 1509.1,628.1 1511.1,630.1C1512.5,631.5 1513.9,632 1515.6,631.6C1516.9,631.3 1519.1,630.7 1520.4,630.4C1522.7,629.9 1522.9,630.1 1523.5,635.7C1523.9,638.9 1524.3,642.4 1524.4,643.5C1524.6,646.6 1519.6,648.4 1509.5,648.7C1502.2,649 1499.7,648.7 1496.4,647.2Z" style="fill:rgb(38,72,111);fill-rule:nonzero;"/>
                    <path id="p1BRyY3Vkb" d="M1066.3,647.3L1057.1,646.9L1052.5,632.2C1049.9,624.1 1044.5,607 1040.4,594.1C1036.3,581.3 1033,570 1033,569.1C1033,567.6 1034.1,567.5 1042.8,567.8C1048.1,568 1052.8,568.5 1053.1,568.9C1053.5,569.2 1056.8,580.2 1060.6,593.3C1064.3,606.3 1067.7,617 1068.1,617C1068.4,617 1069.3,614.9 1069.9,612.3C1070.6,609.6 1073.4,598.6 1076.2,587.7L1081.3,567.9L1091.9,568.2L1102.4,568.5L1103.1,571.5C1103.9,575.6 1113.9,614.1 1114.5,615.9C1114.8,616.7 1115.3,617.1 1115.5,616.8C1115.8,616.6 1119.1,605.7 1122.9,592.6C1126.6,579.6 1129.9,568.8 1130.1,568.5C1130.8,567.9 1149.9,567.6 1150.5,568.2C1151.1,568.7 1127.9,642.8 1126.2,645.9C1125.3,647.5 1106.5,648 1105.1,646.4C1104.7,645.9 1101.7,635.6 1098.6,623.5C1091.7,596.9 1092,597.9 1091,600.5C1090.5,601.6 1087.6,612.4 1084.4,624.5C1079.3,644.1 1077.7,648.4 1076,647.8C1075.7,647.7 1071.4,647.4 1066.3,647.3Z" style="fill:rgb(38,72,111);fill-rule:nonzero;"/>
                    <path id="pHUq4mTPd" d="M1293.4,646.7C1293.2,646 1293.1,628.2 1293.2,607L1293.5,568.5L1302.8,568C1313.5,567.4 1314.5,568 1313.4,573.4C1313.1,575.4 1313.1,577 1313.5,577C1313.9,577 1316.1,575 1318.4,572.6C1323.8,566.8 1328.9,565.2 1336.4,566.9C1345.7,569 1345.8,569.2 1342,579.9C1339.3,587.3 1338.4,589 1337.1,588.4C1329.8,585.3 1328,585 1324.6,586.4C1317.1,589.5 1315.9,594.3 1315.1,623.5L1314.5,647.5L1304.2,647.7C1297.1,647.8 1293.7,647.5 1293.4,646.7Z" style="fill:rgb(38,72,111);fill-rule:nonzero;"/>
                    <path id="pCIE56gHg" d="M1377.4,646.9C1377.2,646.5 1376.7,547.2 1377,538.2C1377,537.2 1379.4,537 1387.3,537.2L1397.5,537.5L1398.5,594.3L1410.2,581.3L1422,568.2L1434.2,567.8C1441,567.6 1446.9,567.7 1447.3,568.1C1447.8,568.4 1442.3,575 1435.1,582.6C1427.9,590.3 1422,596.8 1422,597.1C1422,597.8 1447.8,643 1449.2,644.7C1451.1,647 1449.1,647.5 1438.4,647.4C1430.2,647.4 1427.4,647 1426.8,645.9C1426.3,645.1 1421.9,637.4 1416.9,628.8C1411.9,620.1 1407.5,613 1407,613C1406.6,613 1404.4,615.2 1402.1,617.9L1398.1,622.7L1397.5,647.5L1387.7,647.5C1382.2,647.5 1377.6,647.2 1377.4,646.9Z" style="fill:rgb(38,72,111);fill-rule:nonzero;"/>
                    <path id="pVG2O2hk8" d="M386.6,518.9C345.1,515.5 309.5,499.6 282.8,472.7C257.4,447.1 241.7,417.3 235.4,382.5C234.1,375.1 233.6,367.6 233.6,354C233.6,337.9 234,333.9 236.3,322.9C245.7,278.2 268.6,241.4 301.9,217.6C317.9,206.1 341.8,195.7 361.5,191.5C380.1,187.5 409.5,185.9 426.5,187.9C432.3,188.6 433.7,188.5 434.8,187.2C435.8,185.9 436,186.2 436,189.2C436,191.8 434.5,195.1 430.4,201.6C420.8,216.8 407.7,245.3 402,263.5C400.5,268.3 399.3,270 397.3,270C396.3,270 396.1,269.4 396.5,268.1C397,266.3 396.8,266.3 389.8,267.6C352.9,274.6 326.1,302 318.9,339.8C317.2,348.6 318.3,367.6 320.9,376.8C327.2,398.7 343.9,419.6 364,430.8C371.2,434.8 380.6,437.9 390.3,439.5C397.6,440.7 398,440.6 398,438.9C398,437.8 398.4,437 398.8,437C400.8,437 402.8,440 405,446.5C411,464.5 420.7,484.5 432.7,503.7C437,510.6 439,514.8 439,517C439,519.6 438.7,520 437.7,519.1C436.7,518.4 432.6,518.3 423.4,519C408.6,520.1 400.6,520.1 386.6,518.9Z" style="fill:rgb(38,72,111);fill-rule:nonzero;"/>
                    <path id="pKxsuCmZs" d="M1121.2,515.9C1086.6,513 1058.9,501.5 1038.3,481.2C1022.3,465.6 1012.8,446.8 1008.6,422.4C1005.5,405 1004.9,381.6 1005.2,288.5L1005.5,196.5L1086.5,196.5L1087.5,401.5L1089.9,408.5C1095.5,425.6 1106.1,436.4 1122.8,442.2C1132.3,445.4 1149.4,445.5 1159.6,442.3C1173.3,438 1185.5,427.1 1190,415.3C1196.2,398.7 1197,384.3 1197,283.3L1197,196L1236.3,196C1257.8,196 1276.1,196.4 1276.8,196.9C1277.9,197.5 1278,217.2 1277.7,301.6C1277.4,401.2 1277.3,405.9 1275.3,416.1C1272.8,429.3 1270.1,437.4 1264.9,447.5C1251.8,473.3 1227.6,494.9 1199.6,506C1179,514.1 1148,518.1 1121.2,515.9Z" style="fill:rgb(38,72,111);fill-rule:nonzero;"/>
                    <path id="paut0VwiA" d="M1386,515.4C1364.9,512.5 1341.7,504.9 1324,495.3C1315.4,490.6 1302,482.1 1302,481.3C1302,480.8 1327.3,432.9 1332.7,423.3C1334.6,419.8 1336.6,417 1337.2,417C1337.7,417 1341.4,419.6 1345.3,422.8C1366.4,440 1388,449 1408.3,449C1427.1,449 1442.7,439.8 1446.6,426.4C1450.8,411.9 1444.1,400.2 1426.8,391.7C1419.6,388.2 1414.7,386.6 1379.5,375.5C1348.9,365.8 1337,358.3 1326.5,342C1312.3,320.2 1310.2,282.3 1321.4,252.6C1327.3,236.9 1341.7,218.3 1355.4,208.5C1364.5,202.1 1379.1,195.4 1390.5,192.4C1415.9,185.9 1453.2,188.9 1486.7,200.2C1497.5,203.8 1519.3,213.7 1519.4,215C1519.5,216.2 1487.8,277 1487.1,277C1486.7,277 1482.7,274.6 1478.4,271.7C1453.9,255.3 1427,252.5 1409.4,264.4C1400.2,270.6 1396.6,282.1 1400.9,291.5C1405.2,300.9 1415.6,306.8 1442.6,315C1464.9,321.8 1474.8,325.4 1484.5,330.3C1508.1,342 1521.9,356.8 1528.8,377.8C1531,384.5 1531.4,387.7 1531.8,403C1532.3,423 1530.9,433.5 1525.9,448.5C1514.4,482.8 1485.8,505.2 1442.1,514.1C1428.9,516.8 1400.4,517.5 1386,515.4Z" style="fill:rgb(38,72,111);fill-rule:nonzero;"/>
                    <path id="pIw3xz820" d="M23.7,508.3C23.3,508 23,437.8 23,352.3C23,205.1 23.1,197 24.8,196.9C35.2,196.4 201.3,196.6 201.6,197.1C202.5,198.6 202.1,263.3 201.2,264.2C200.6,264.8 181.8,265 152.6,264.8L105,264.5L105,317L149.3,317.2L193.5,317.5L193.5,384.5L149.3,384.8L105,385L104.8,446.8L104.5,508.5L64.4,508.8C42.4,508.9 24.1,508.7 23.7,508.3Z" style="fill:rgb(38,72,111);fill-rule:nonzero;"/>
                </g>
                <g>
                    <path id="pQyvsXBXg" d="M929.8,687.2C928.4,685.7 923.7,679.8 919.2,674C914.8,668.2 907.2,658.5 902.3,652.3C897.5,646.2 884.5,629.6 873.5,615.6C862.5,601.5 853.2,590 852.9,590C852.5,590 847.1,593.4 840.9,597.6C827.2,606.7 798.1,621.2 781.1,627.5C759.5,635.5 736.6,640.8 712.5,643.5C697.4,645.2 664.8,645.5 649.9,644C567.8,635.8 493.9,593.6 442.4,525.5C428.1,506.6 411.9,476.8 404,455C401.7,448.7 399.5,442.6 399,441.5C397.3,437.6 391,410.3 389,398.5C383.2,364.2 384.1,324.2 391.6,288.8C400.7,245.4 420.8,203.3 449.6,167C459.3,154.9 486.8,127.8 498.5,118.9C544.1,84.3 592,64.7 646.5,58.4C664,56.4 707.1,56.9 722,59.4C764.5,66.4 799.1,78.9 833,99.5C894.9,137 941.4,197 962.4,266.2C974.7,306.9 977.7,356.5 970.4,401C962.9,446.3 942.5,493 913.9,529.9C910.1,534.9 907,539.2 907,539.5C907,540.1 917.4,553.6 937.7,579.5C974.1,625.8 989,644.9 989,645.4C989,645.6 982.1,651.2 973.8,657.6C965.4,664.1 953.1,673.7 946.5,679C939.9,684.3 934,688.9 933.4,689.3C932.8,689.6 931.2,688.7 929.8,687.2ZM711.3,567.5C753.3,561 791.2,543.7 822.8,516.5C846.1,496.5 862.5,475.3 876.1,447.5C906.5,385.5 906.4,314.9 875.9,253.8C855.1,212 823.1,179.3 781.9,157.6C760.8,146.5 739.6,139.5 713.3,134.9C702.7,133 696.9,132.6 679.5,132.6C653.4,132.6 636.5,135.2 612.5,142.7C597.9,147.3 574.6,158.1 564.2,165.2C560,168.1 559.9,168.3 561.6,170.1C562.5,171.1 562.9,172 562.3,172C560.4,172 540.2,187.9 531,196.7C515.1,211.7 499,233.4 488.4,254C485.7,259.2 483.4,263.7 483.3,263.9C483.1,264.1 482.4,263.7 481.6,263.1C479.7,261.5 479,262.9 473.9,277.1C465.6,300.5 462.1,319.1 461.3,344.5C460.3,375.3 464.9,401.9 476.2,430.8C479.9,440.3 480.4,441.1 481.8,439.6C483.2,438.2 483.9,439.1 489.1,449C500.2,470 512.1,486 529.8,503.6C540.4,514.2 560.2,530 562.9,530C564,530 563.9,530.5 562.4,532.1C560.5,534.2 560.5,534.3 562.9,535.9C568.6,539.8 583.3,547.6 592.8,551.7C615.9,561.6 635.2,566.4 664.5,569.4C672.2,570.2 701.6,569 711.3,567.5Z" style="fill:rgb(229,180,0);fill-rule:nonzero;"/>
                </g>
                <g>
                    <path id="pvQViluxV" d="M567,511.3C556.6,503.5 554.2,501.2 542.6,488.4C525.4,469.4 509.8,442.5 503.5,420.7C501.5,413.8 501.6,413.2 506.8,401.5C509,396.6 512.1,387.6 513.6,381.5C516.3,371.3 516.5,369.2 516.5,352C516.5,337.7 516.1,331.6 514.6,325C512.2,314.1 507.6,300.9 503.8,294.2C501.2,289.5 501,288.7 502.2,287.2C503,286.3 504.9,282.1 506.5,278C515.8,253.3 532,229 552.2,209.4C562.3,199.5 575.8,189 578.2,189C582.2,189 606.7,224.4 616.5,244.4C646,304.3 648.3,382.1 622.4,444.8C612.5,468.9 594.8,497 579.2,513.8L575.5,517.8L567,511.3Z" style="fill:rgb(62,181,192);fill-rule:nonzero;"/>
                </g>
                <g>
                    <path id="p9AXkLBZh" d="M547.9,525.1C523.1,506.4 500.3,479.4 485.9,451.5L480.6,441.2L483.3,437.9C490.7,428.8 498.4,418.2 501.3,412.9C504.7,406.6 506,405.5 505.3,409.4C504.2,415.2 513.5,438.8 523.8,456C535.3,475.3 553.2,495.7 568.7,507.2C573.8,511 578,514.5 578,514.9C578,516.5 561.8,533 560.1,533C559.2,533 553.7,529.4 547.9,525.1Z" style="fill:rgb(41,136,143);fill-rule:nonzero;"/>
                    <path id="pLbCKYWo1" d="M503.3,292.8C502.8,292.1 501.1,289.3 499.5,286.5C496.2,280.8 489.3,271.4 483.7,265.4L479.9,261.2L485.1,251.4C496.2,230.2 512.1,208.7 528,193.7C537.8,184.4 557.4,169 559.5,169C560.2,169 565.6,174 571.4,180.1L582.1,191.2L579.5,192.6C574.7,195.1 564.4,203.4 555.2,212.4C535,232 518.8,256.3 509.5,281C507.9,285.1 506.1,289.2 505.4,290C504.8,290.8 504.5,292.1 504.7,292.8C505,293.4 505,294 504.7,294C504.5,294 503.8,293.4 503.3,292.8Z" style="fill:rgb(41,136,143);fill-rule:nonzero;"/>
                </g>
            </g>
        </g>
    </g>
</svg>
