<?xml version="1.0" encoding="UTF-8" standalone="no"?>
<!DOCTYPE svg PUBLIC "-//W3C//DTD SVG 1.1//EN" "http://www.w3.org/Graphics/SVG/1.1/DTD/svg11.dtd">
<svg width="100%" height="100%" viewBox="0 0 1000 419" version="1.1" xmlns="http://www.w3.org/2000/svg" xmlns:xlink="http://www.w3.org/1999/xlink" xml:space="preserve" xmlns:serif="http://www.serif.com/" style="fill-rule:evenodd;clip-rule:evenodd;stroke-linejoin:round;stroke-miterlimit:2;">
    <g transform="matrix(0.638978,0,0,0.623166,179.265,31.589)">
        <g id="boog" transform="matrix(1,0,0,1,-690.55,-399.042)">
            <g>
                <path id="pk1Z0q7hb" d="M1157.5,914.1C1156.8,912.9 1000,443.1 1000,442C1000,441.7 999.5,442.2 999,443C998.2,444.2 998,444 997.9,442C997.8,440.6 997.7,438.8 997.8,437.9C997.9,437 993.4,422.8 988,406.4C982.5,390 978,376.5 978,376.4C978,376 999.3,371.2 1012,368.6C1115.6,347.6 1220,344.6 1321,359.6C1338.8,362.2 1368.8,367.5 1369.4,368.1C1369.6,368.3 1366.8,379.8 1363,393.5C1350.8,438.6 1339,482.1 1332.5,505.5C1329,518.2 1323,540.2 1319.1,554.5C1315.3,568.8 1304.4,608.6 1295,643C1285.6,677.4 1274.3,718.6 1270,734.5C1252.5,798.9 1227.8,889.3 1224.4,901C1223.1,905.7 1222,910.3 1222,911.3C1222,914 1220.1,914.2 1210.6,912.5C1199.6,910.6 1184,910.6 1173.5,912.5C1158.8,915.2 1158.3,915.3 1157.5,914.1Z" style="fill:rgb(255,217,102);fill-rule:nonzero;"/>
            </g>
            <g>
                <path id="p1deTq1Is" d="M1275.8,945.6C1267.6,936.1 1246,922.4 1232,918C1228.4,916.9 1224.9,915.6 1224.1,915.1C1222.5,914 1222.6,913.3 1233.6,873.5C1241.6,844.4 1256,791.4 1265.5,756.5C1269.5,741.7 1285.7,682.3 1301.5,624.5C1317.3,566.8 1334.2,504.9 1339,487C1347.9,454.5 1355.4,427 1365.6,389.6C1368.6,378.6 1371.3,369.4 1371.6,369.1C1372.9,367.8 1412,377.2 1446,387C1559.7,419.8 1668.3,478.9 1753.5,554.4C1758.5,558.7 1762.7,562.5 1762.9,562.7C1763.1,562.8 1762.6,563.8 1761.7,564.8C1760.7,565.8 1760.3,567 1760.7,567.4C1761.2,567.8 1760.8,568 1760,567.8C1759.2,567.6 1758.6,568 1758.5,568.7C1758.5,569.3 1758.1,570.2 1757.6,570.7C1757.1,571.2 1757,570.9 1757.5,570.1C1758,569.2 1757.8,568.9 1756.9,569.2C1756.1,569.5 1755.6,570.3 1755.8,570.9C1755.9,571.6 1755.6,571.9 1755,571.5C1753.7,570.7 1739.8,581.9 1740.6,583.1C1740.9,583.6 1740.7,583.9 1740.1,583.8C1739.5,583.6 1737.4,585.3 1735.4,587.5C1733.5,589.7 1732.2,590.9 1732.6,590.1C1733,589.2 1732.8,588.9 1731.9,589.2C1731.1,589.5 1730.6,590.3 1730.8,590.9C1730.9,591.6 1730.6,591.9 1730.1,591.6C1728.8,590.8 1715.2,601.7 1711.2,606.8C1709.4,609.1 1707.3,610.7 1706.6,610.4C1705.1,609.8 1689.8,621.8 1690.5,623C1690.8,623.5 1690.5,624.2 1689.9,624.6C1689.1,625.1 1688.9,624.8 1689.4,623.9C1689.8,623.1 1688.4,624.4 1686.3,626.8C1684.2,629.1 1681.7,631 1680.7,631C1679.7,631 1675.6,633.6 1671.7,636.9C1664.3,643 1659.3,647.9 1662,646.6C1662.8,646.2 1662.2,646.9 1660.6,648.1C1659,649.4 1656.9,650.4 1656,650.5C1653.5,650.7 1628.9,671 1629.7,672.3C1630,672.9 1629.8,673 1629.1,672.6C1627.6,671.7 1603.8,690.8 1604.7,692.3C1605.1,692.9 1604.8,693 1604.1,692.5C1602.7,691.7 1596.7,696.8 1597.6,698.1C1597.8,698.5 1597.5,699.2 1596.9,699.6C1596.1,700 1596,699.9 1596.4,699.2C1598.1,696.5 1594.9,698.4 1586.5,705.3C1581.5,709.3 1577.5,713.1 1577.5,713.7C1577.5,714.3 1577.1,715.2 1576.6,715.7C1576.1,716.2 1576,715.9 1576.5,715.1C1577,714.2 1576.8,713.9 1575.9,714.2C1575.1,714.5 1574.6,715.3 1574.7,715.9C1574.9,716.5 1574.5,716.9 1573.8,716.7C1573.1,716.6 1572.6,717 1572.5,717.7C1572.5,718.3 1572.1,719.2 1571.6,719.7C1571.1,720.2 1571,719.9 1571.5,719.1C1572,718.2 1571.8,717.9 1570.9,718.2C1570.1,718.5 1569.6,719.2 1569.7,719.8C1569.8,720.3 1569.3,720.7 1568.6,720.6C1566.8,720.4 1552,732.8 1552.3,734.2C1552.4,734.9 1551.9,735.4 1551.2,735.5C1550.5,735.5 1549,736.6 1547.9,738C1546.7,739.4 1546.1,739.9 1546.5,739.3C1547.6,737.1 1546,737.9 1539.7,742.7C1530.1,750.1 1526,754.1 1526.7,755.4C1527,756 1527,756.2 1526.5,755.8C1526.1,755.4 1524.9,756.2 1523.8,757.5C1522.8,758.8 1521.3,759.7 1520.6,759.4C1519.1,758.8 1503.8,770.8 1504.5,772C1504.8,772.5 1504.5,773.2 1503.9,773.6C1503.1,774.1 1502.9,773.8 1503.4,772.9C1503.8,772.1 1502.4,773.3 1500.3,775.6C1496.1,780.1 1492.1,783.3 1493.4,781.3C1494.8,778.9 1493,780 1483,788.1C1477.5,792.5 1473.2,796.6 1473.6,797.1C1473.9,797.6 1473.6,797.9 1472.9,797.8C1472.2,797.6 1471.6,798 1471.5,798.7C1471.5,799.3 1471.1,800.2 1470.6,800.7C1470.1,801.2 1470,800.9 1470.5,800.1C1471,799.2 1470.8,798.9 1469.9,799.2C1469.1,799.5 1468.6,800.2 1468.7,800.8C1468.9,801.4 1468.4,801.7 1467.6,801.4C1466.4,800.9 1464.5,802.4 1463.8,804.5C1463.7,805.1 1463.1,805.4 1462.7,805.2C1461.5,804.8 1443,820.1 1443.6,821.1C1443.9,821.6 1443.5,821.7 1442.7,821.5C1442,821.2 1440.5,821.9 1439.4,823.1L1437.5,825.3L1440,824.1C1442.3,823 1442.4,823 1440.6,824.4C1439.6,825.3 1438.3,825.7 1437.8,825.4C1436.5,824.6 1432.9,828 1433.7,829.3C1434,829.9 1433.8,830 1433.1,829.6C1431.6,828.6 1417.8,839.8 1418.7,841.3C1419.1,841.9 1418.8,842 1418.1,841.6C1416.7,840.7 1412.8,843.8 1413.6,845.2C1413.9,845.6 1413.6,845.9 1412.9,845.8C1412.2,845.6 1411.6,846 1411.5,846.7C1411.5,847.3 1411.1,848.2 1410.6,848.7C1410.1,849.2 1410,848.9 1410.5,848.1C1411,847.2 1410.8,846.9 1409.9,847.2C1409.1,847.5 1408.6,848.2 1408.7,848.8C1408.8,849.3 1408.3,849.7 1407.6,849.6C1405.8,849.4 1391,861.8 1391.3,863.2C1391.4,863.9 1390.9,864.4 1390.2,864.5C1389.5,864.5 1388,865.6 1386.9,867C1385.7,868.4 1385.1,868.9 1385.5,868.3C1386.7,865.8 1384.4,867.1 1377.5,872.6C1367.8,880.3 1365,883.1 1365.7,884.4C1366,885 1366,885.2 1365.5,884.8C1365.1,884.4 1363.9,885.2 1362.8,886.5C1361.8,887.8 1360.3,888.7 1359.6,888.4C1357.9,887.7 1341.8,900.8 1342.6,902.2C1343,902.8 1342.9,903 1342.3,902.7C1341.7,902.3 1340.6,902.8 1339.9,903.7C1338.7,905.1 1338.7,905.3 1340,904.6C1340.8,904.1 1340.2,904.9 1338.5,906.3C1336.9,907.6 1335,908.6 1334.4,908.3C1332.5,907.6 1314.6,922.6 1315.6,924.1C1315.8,924.5 1315.5,925.2 1314.9,925.6C1314.1,926.1 1313.9,925.8 1314.5,924.9C1314.9,924.1 1313.8,925.1 1312.1,927C1310.3,928.9 1309.2,929.9 1309.6,929.1C1310,928.2 1309.8,927.9 1308.9,928.2C1308.1,928.5 1307.6,929.3 1307.8,929.9C1307.9,930.6 1307.6,930.9 1307.1,930.5C1306.1,929.9 1297.6,936.1 1286.9,945.2C1283.8,947.8 1280.8,950 1280.4,950C1279.9,949.9 1277.8,948 1275.8,945.6Z" style="fill:rgb(146,208,80);fill-rule:nonzero;"/>
            </g>
            <g>
                <path id="pa9PeTExh" d="M1101,949.3C1097.9,947.1 1061.4,918.7 900.5,793C748.5,674.3 702.2,638.1 660.5,605.7C638,588.1 618.5,572.8 617.2,571.6L614.9,569.4L627.7,557.9C699.8,493 785.6,441.7 881.5,406C915.1,393.5 974.2,375.8 976.1,377.7C976.9,378.5 1154.5,911 1155.2,914.5C1155.4,915.8 1153.8,916.9 1148.9,919C1134.4,924.9 1119.2,934.9 1109.4,944.9C1103.5,951 1103.5,951 1101,949.3Z" style="fill:rgb(237,125,49);fill-rule:nonzero;"/>
            </g>
            <g>
                <path id="p11jeAOPLS" d="M1306.2,1009.6C1304.3,991.3 1296.4,970.9 1285.9,957.1C1283.7,954.2 1282.2,951.4 1282.7,951C1283.1,950.6 1287.2,947.3 1291.6,943.7C1296.1,940.1 1300.7,936.4 1301.7,935.4C1302.8,934.3 1304.7,932.8 1305.9,932C1309.2,929.8 1313.8,926.2 1320.2,920.8C1321.6,919.5 1324.2,917.4 1325.9,916C1327.7,914.6 1329.6,913.1 1330.3,912.5C1331,912 1333.3,910.2 1335.5,908.6C1340,905.2 1343.4,902.3 1345.8,899.8C1346.7,898.8 1347.9,898 1348.4,898C1348.9,898 1350.3,897 1351.6,895.8C1355,892.4 1357.2,890.6 1360,888.8C1361.4,887.9 1363.9,885.9 1365.7,884.3C1367.4,882.8 1370,880.6 1371.5,879.5C1372.9,878.4 1374.9,876.7 1375.8,875.8C1376.7,874.8 1377.9,874 1378.4,874C1378.9,874 1380.3,873 1381.5,871.8C1382.8,870.5 1385,868.6 1386.5,867.5C1388,866.4 1390.3,864.6 1391.5,863.5C1392.8,862.4 1395,860.6 1396.4,859.5C1397.8,858.4 1400.1,856.6 1401.5,855.5C1402.8,854.4 1405.1,852.6 1406.6,851.5C1408,850.4 1410.3,848.6 1411.6,847.5C1412.9,846.4 1415.2,844.6 1416.6,843.5C1418,842.4 1420.3,840.6 1421.5,839.5C1422.8,838.4 1425.1,836.6 1426.5,835.5C1427.9,834.4 1430.2,832.6 1431.5,831.5C1432.9,830.4 1435.2,828.6 1436.6,827.5C1438,826.4 1440.3,824.6 1441.6,823.5C1442.9,822.4 1445.2,820.6 1446.6,819.5C1448,818.4 1450.3,816.6 1451.6,815.5C1452.9,814.4 1455.4,812.4 1457.1,811C1458.8,809.6 1461,807.8 1462,806.9C1463,806.1 1465.1,804.5 1466.6,803.4C1468,802.4 1470.3,800.6 1471.6,799.5C1472.9,798.4 1475.2,796.6 1476.6,795.5C1478,794.4 1480.2,792.6 1481.5,791.5C1482.8,790.4 1485.2,788.4 1486.9,787C1488.7,785.6 1490.6,784.1 1491.3,783.5C1492,783 1494.1,781.3 1496,779.9C1497.9,778.4 1500.5,776.4 1501.6,775.4C1502.8,774.3 1505.2,772.4 1507.1,771C1508.9,769.6 1511.1,767.7 1511.9,766.8C1512.8,765.8 1514,765 1514.8,765C1515.5,765 1516.3,764.3 1516.7,763.5C1517,762.6 1518.4,761.3 1519.9,760.5C1522.2,759.3 1526.4,755.8 1532.1,750.5C1533,749.7 1534.2,749 1534.8,749C1535.4,749 1536.4,748.1 1537,747C1537.6,745.9 1538.6,745 1539.4,745C1540.1,745 1541.6,744 1542.8,742.8C1543.9,741.5 1546.1,739.6 1547.5,738.5C1549,737.4 1551.3,735.6 1552.5,734.5C1553.8,733.4 1556.1,731.6 1557.5,730.5C1559,729.4 1560.9,727.7 1561.8,726.8C1562.7,725.8 1563.9,725 1564.5,725C1565.1,725 1566.6,724 1567.8,722.8C1568.9,721.5 1571.1,719.6 1572.5,718.5C1574,717.4 1576.3,715.6 1577.6,714.5C1578.9,713.4 1581.2,711.6 1582.6,710.5C1584,709.4 1586.2,707.6 1587.5,706.5C1588.8,705.4 1591.1,703.6 1592.6,702.5C1594,701.4 1596.3,699.6 1597.6,698.5C1598.9,697.4 1601.2,695.6 1602.6,694.5C1604,693.4 1606.3,691.6 1607.6,690.5C1608.9,689.4 1611.2,687.6 1612.6,686.5C1615.6,684.1 1620.3,680.3 1623.4,677.5C1624.7,676.4 1626.7,674.8 1628,674C1629.3,673.2 1631.4,671.6 1632.7,670.5C1634,669.4 1636.2,667.6 1637.6,666.5C1639,665.4 1641.2,663.6 1642.5,662.5C1643.8,661.4 1646.2,659.4 1648,658C1649.7,656.6 1651.9,654.8 1652.8,654C1653.7,653.1 1656.4,651.2 1658.7,649.6C1661,648.1 1663.1,646.2 1663.4,645.4C1663.7,644.6 1664.5,644 1665.1,644C1665.7,644 1667.3,643 1668.5,641.7C1669.7,640.5 1671.9,638.6 1673.4,637.5C1674.9,636.4 1676.8,634.8 1677.8,633.9C1678.7,633 1680.2,631.9 1681.1,631.4C1683.3,630.2 1690.9,623.9 1692.9,621.7C1693.7,620.8 1694.9,620 1695.4,620C1695.9,620 1697.3,619 1698.5,617.7C1699.8,616.5 1701.9,614.7 1703.2,613.8C1707.4,610.6 1717.7,602.5 1719.3,601C1720.1,600.2 1722,598.6 1723.5,597.5C1724.9,596.4 1727.3,594.5 1728.7,593.3C1730.1,592 1731.6,591 1731.9,591C1732.2,591 1734.4,589.3 1736.8,587.2C1739.1,585.2 1742.2,582.6 1743.6,581.5C1745,580.4 1747.2,578.6 1748.5,577.5C1749.8,576.4 1752.1,574.6 1753.6,573.5C1755,572.4 1757.4,570.5 1758.8,569.3C1760.3,568 1762,566.6 1762.7,566C1763.4,565.5 1764.3,565 1764.8,565C1765.9,565 1809.1,608.5 1816.4,617C1819.5,620.6 1825.6,627.8 1829.9,633.1C1834.2,638.4 1840.1,645.6 1842.9,649C1845.8,652.5 1849.2,656.9 1850.5,658.9C1851.8,660.9 1855.2,665.7 1858,669.5C1867.3,682.4 1876.6,696.4 1883.6,707.8C1887.4,714 1891.7,721 1893.1,723.3C1894.5,725.6 1899.3,734.5 1903.7,743C1908.2,751.5 1912.5,759.9 1913.4,761.5C1914.8,764.2 1917.4,769.8 1922.8,782C1938,815.8 1952.7,860.8 1960.9,898C1968.6,933 1974,978.9 1974,1009.8L1974,1021L1307.4,1021L1306.2,1009.6Z" style="fill:rgb(0,176,80);fill-rule:nonzero;"/>
            </g>
            <g transform="matrix(1,0,0,1,0,1.60471)">
                <path id="p186t4dUjk" d="M1062.6,1018.8C1054.3,1018.7 411,1019 411,1019L411,1001.1C411,992.2 412.6,970.5 414.5,954C419.6,910.2 431.2,861.9 446.5,820.5C452.2,805.3 454.7,799 461.5,783C471.4,759.9 497.3,712.8 513,689.5C539.7,649.6 577.9,603.9 605,579L613.6,571.2L619.7,575.9C623.1,578.5 626.6,581.4 627.5,582.3C628.4,583.3 629.5,584 629.8,584C630.2,584 631.9,585.2 633.6,586.8C635.3,588.3 638.4,590.7 640.6,592.2C642.7,593.7 645.9,596.2 647.6,597.7C649.2,599.2 652.5,601.8 654.8,603.4C657.1,605 659,606.6 659,607C659,607.4 660,608.2 661.3,608.7C662.5,609.3 664.9,611 666.5,612.4C668.2,613.8 672.2,617.1 675.5,619.6C678.8,622.1 681.7,624.5 682,624.9C682.3,625.2 684.4,626.8 686.8,628.4C689.1,630 691,631.6 691,632.1C691,632.5 691.8,633.1 692.8,633.4C693.7,633.7 695.9,635.2 697.6,636.7C699.2,638.3 702.4,640.7 704.6,642.2C706.7,643.7 710,646.3 711.8,648C713.6,649.6 715.3,651 715.6,651C716.1,651 731.2,662.8 732,663.9C732.3,664.2 734.4,665.8 736.8,667.4C739.1,669 741,670.6 741,671.1C741,671.5 741.8,672.1 742.8,672.4C743.7,672.8 746.2,674.5 748.2,676.3C750.2,678 754.6,681.5 757.9,684C761.3,686.4 764,688.8 764,689.2C764,689.5 764.8,690.1 765.8,690.4C766.7,690.7 768.9,692.2 770.6,693.7C772.3,695.3 775.2,697.6 777.1,698.9C780.4,701.3 781.4,702.1 785.5,705.7C786.7,706.7 789.5,708.8 791.8,710.4C794.1,712 796,713.6 796,714.1C796,714.5 796.8,715.1 797.8,715.4C798.7,715.7 800.9,717.2 802.6,718.7C804.2,720.3 807.4,722.7 809.6,724.2C811.7,725.7 815,728.3 816.8,730C818.6,731.6 820.3,733 820.6,733C821.2,733 835.1,743.8 836.5,745.4C837.1,746 839.4,747.8 841.8,749.4C844.1,751 846,752.6 846,753C846,753.4 847,754.2 848.3,754.7C849.5,755.3 851.9,757 853.5,758.4C855.2,759.8 859.2,763.1 862.5,765.6C865.8,768.1 868.7,770.5 869,770.9C869.3,771.2 871.4,772.8 873.8,774.4C876.1,776 878,777.6 878,778.1C878,778.5 878.8,779.1 879.8,779.4C880.7,779.7 882.9,781.2 884.6,782.7C886.2,784.3 889.4,786.7 891.6,788.2C893.7,789.7 896.9,792.2 898.6,793.7C900.2,795.2 903.5,797.8 905.8,799.4C908.1,801 910,802.6 910,803C910,803.4 911,804.2 912.3,804.7C913.5,805.3 915.9,807 917.5,808.4C919.2,809.8 923,812.9 926,815.3C929.1,817.6 932.2,820.1 933,820.8C933.8,821.4 942,827.8 951.1,834.9C960.3,841.9 968.4,848.2 969.1,848.9C969.9,849.5 973,852 976.2,854.4C979.3,856.7 982.6,859.4 983.5,860.3C984.4,861.2 985.5,862 985.8,862C986.2,862 987.9,863.2 989.6,864.8C991.3,866.3 994.4,868.7 996.6,870.2C998.7,871.7 1001.9,874.2 1003.6,875.7C1005.2,877.2 1008.5,879.8 1010.8,881.4C1013.1,883 1015,884.6 1015,885.1C1015,885.5 1015.8,886.1 1016.8,886.4C1017.7,886.7 1019.9,888.2 1021.6,889.7C1023.2,891.3 1026.4,893.7 1028.6,895.2C1030.7,896.7 1033.9,899.2 1035.6,900.7C1037.3,902.2 1040.2,904.6 1042.1,905.9C1044,907.2 1046.2,908.9 1047,909.7C1047.8,910.4 1053.9,915.2 1060.5,920.3C1067.2,925.3 1073.2,930 1074,930.7C1074.8,931.4 1078.2,934.1 1081.5,936.7C1084.8,939.3 1088.1,942 1088.8,942.7C1089.5,943.4 1090.4,944 1090.8,944C1091.2,944 1093.1,945.5 1095.1,947.3C1097.1,949 1099.6,951 1100.5,951.5C1102.1,952.5 1101.9,953.1 1098.1,958C1088.2,970.9 1079.9,993.3 1078.4,1011.1L1077.7,1019L1062.6,1018.8Z" style="fill:rgb(192,0,0);fill-rule:nonzero;"/>
            </g>
        </g>
        <g transform="matrix(1.99996,0.0121471,-0.00884282,1.53075,-684.187,-209.3)">
            <g id="circelwijzer">
                <g id="arrow">
                    <path d="M654.22,495.76C654.84,527.79 624.946,537.515 592.546,538.315C560.086,539.125 536.95,530.39 536.33,498.3C535.71,466.27 591.28,251.92 591.28,251.92C591.28,251.92 653.6,463.67 654.22,495.76Z" style="fill:rgb(124,45,0);fill-rule:nonzero;"/>
                    <path d="M590.6,254.28L595.202,530.658C595.096,506.663 594.899,529.634 595.185,530.625C595.212,530.641 595.241,530.648 595.27,530.647C627.699,529.845 654.47,527.898 653.85,495.89C653.23,463.86 590.97,251.74 590.97,251.74C590.97,251.74 591.34,252.6 590.6,254.28Z" style="fill:rgb(255,51,0);fill-rule:nonzero;"/>
                </g>
            </g>
        </g>
        <g id="binnencirkel" transform="matrix(0.0371459,0,0,0.0380883,166.419,264.478)">
            <path d="M9036.52,5454.8C6884.32,5454.8 5135.65,7218.41 5135.65,9385.56L12929.9,9385.56C12937.4,7218.41 11188.7,5454.79 9036.5,5454.79L9036.52,5454.79L9036.52,5454.8Z" style="fill:rgb(74,78,87);fill-rule:nonzero;"/>
            <path d="M9036.52,6359.01C7377.53,6359.01 6032.41,7719.08 6032.41,9385.56L12040.7,9385.56C12048.1,7719.08 10695.5,6359.01 9036.54,6359.01L9036.52,6359.01L9036.52,6359.01Z" style="fill:rgb(237,237,237);fill-rule:nonzero;"/>
            <rect id="score" x="8074.21" y="7351.35" width="1917.16" height="2026.36" style="fill:none;"/>
        </g>
    </g>
</svg>
