<?xml version="1.0" encoding="UTF-8" standalone="no"?>
<!DOCTYPE svg PUBLIC "-//W3C//DTD SVG 1.1//EN" "http://www.w3.org/Graphics/SVG/1.1/DTD/svg11.dtd">
<svg width="100%" height="100%" viewBox="0 0 76 76" version="1.1" xmlns="http://www.w3.org/2000/svg" xmlns:xlink="http://www.w3.org/1999/xlink" xml:space="preserve" xmlns:serif="http://www.serif.com/" style="fill-rule:evenodd;clip-rule:evenodd;stroke-linejoin:round;stroke-miterlimit:2;">
    <g transform="matrix(0.222233,0,0,0.222233,-71.8571,-43.7798)">
        <g transform="matrix(0.962273,0,0,0.962273,12.769,7.5172)">
            <path d="M533.778,342.128L537.231,331.891L529.431,324.091L519.194,327.544C516.532,326.044 513.694,324.884 510.744,324.091L505.95,314.544L495.062,314.544L490.228,324.131C487.268,324.932 484.416,326.091 481.737,327.584L471.5,324.131L463.7,331.931L466.95,342.169C465.391,344.815 464.189,347.657 463.375,350.619L453.787,355.412L453.787,366.138L463.375,370.972C464.165,373.923 465.325,376.762 466.828,379.422L463.375,389.659L471.5,397.459L481.737,393.966C484.397,395.479 487.236,396.653 490.188,397.459L494.981,407.006L505.869,407.006L510.703,397.622C513.603,396.833 516.399,395.701 519.031,394.25L529.228,397.744L537.028,389.903L533.575,379.706C535.127,377.026 536.367,374.178 537.272,371.216L546.819,366.422L546.819,355.412L537.231,350.578C536.456,347.622 535.295,344.781 533.778,342.128ZM500.466,377.188C491.491,377.188 484.216,369.912 484.216,360.938C484.216,351.963 491.491,344.688 500.466,344.688C509.386,344.818 516.585,352.017 516.716,360.938C516.716,369.912 509.44,377.188 500.466,377.188Z" style="fill:rgb(255,192,0);fill-rule:nonzero;"/>
        </g>
        <g transform="matrix(0.962273,0,0,0.962273,12.769,7.5172)">
            <path d="M535.362,486.834L465.447,486.834C458.974,487.216 454.036,492.772 454.417,499.245C454.767,505.186 459.506,509.925 465.447,510.275L535.362,510.275C541.835,509.894 546.774,504.337 546.393,497.864C546.042,491.923 541.303,487.184 535.362,486.834Z" style="fill:rgb(255,192,0);fill-rule:nonzero;"/>
        </g>
        <g transform="matrix(0.962273,0,0,0.962273,12.769,7.5172)">
            <path d="M500.425,549.966C513.689,549.944 524.717,539.747 525.775,526.525L475.034,526.525C476.112,539.754 487.153,549.946 500.425,549.966Z" style="fill:rgb(255,192,0);fill-rule:nonzero;"/>
        </g>
        <g transform="matrix(0.962273,0,0,0.962273,12.769,7.5172)">
            <path d="M601.866,363.659L601.866,360.166C600.83,304.714 555.763,260.205 500.303,259.862C444.843,260.205 399.776,304.714 398.741,360.166L398.741,363.659C399.112,375.686 401.501,387.565 405.809,398.8C409.921,409.4 415.892,419.182 423.441,427.684C432.744,437.8 442.9,457.503 447.206,466.278C448.523,468.929 451.234,470.599 454.194,470.584L546.412,470.584C549.372,470.599 552.083,468.929 553.4,466.278C557.706,457.503 567.863,437.841 577.166,427.684C584.715,419.182 590.685,409.4 594.797,398.8C599.105,387.565 601.494,375.686 601.866,363.659ZM578.466,363.294C578.177,372.629 576.352,381.852 573.062,390.594C569.978,398.466 565.521,405.728 559.9,412.044C550.882,422.779 543.151,434.531 536.866,447.062L463.741,447.062C457.527,434.499 449.864,422.705 440.909,411.922C435.288,405.606 430.832,398.344 427.747,390.472C424.389,381.742 422.494,372.518 422.141,363.172L422.141,360.247C422.868,317.591 457.519,283.318 500.181,283.059C542.843,283.318 577.494,317.591 578.222,360.247L578.466,363.294Z" style="fill:rgb(255,192,0);fill-rule:nonzero;"/>
        </g>
        <g transform="matrix(0.962273,0,0,0.962273,12.769,7.5172)">
            <path d="M501.197,243.938C505.684,243.938 509.322,240.3 509.322,235.812L509.322,207.375C509.322,202.888 505.684,199.25 501.197,199.25C496.709,199.25 493.072,202.888 493.072,207.375L493.072,235.812C493.072,240.3 496.709,243.938 501.197,243.938Z" style="fill:rgb(255,192,0);fill-rule:nonzero;"/>
        </g>
        <g transform="matrix(0.962273,0,0,0.962273,12.769,7.5172)">
            <path d="M404.794,279.647C407.963,282.797 413.081,282.797 416.25,279.647C419.4,276.478 419.4,271.36 416.25,268.191L396.141,248C392.81,244.993 387.672,245.255 384.665,248.585C381.865,251.687 381.874,256.406 384.684,259.497L404.794,279.647Z" style="fill:rgb(255,192,0);fill-rule:nonzero;"/>
        </g>
        <g transform="matrix(0.962273,0,0,0.962273,12.769,7.5172)">
            <path d="M591.994,283.587C594.159,283.589 596.236,282.726 597.763,281.191L617.831,260.878C620.449,257.233 619.616,252.157 615.971,249.539C613.096,247.474 609.214,247.508 606.375,249.625L586.062,269.938C582.912,273.107 582.912,278.225 586.062,281.394C587.662,282.896 589.802,283.687 591.994,283.587Z" style="fill:rgb(255,192,0);fill-rule:nonzero;"/>
        </g>
        <g transform="matrix(0.962273,0,0,0.962273,12.769,7.5172)">
            <path d="M375.016,351.594L346.578,351.594C342.091,351.594 338.453,355.231 338.453,359.719C338.453,364.206 342.091,367.844 346.578,367.844L375.016,367.844C379.503,367.844 383.141,364.206 383.141,359.719C383.141,355.231 379.503,351.594 375.016,351.594Z" style="fill:rgb(255,192,0);fill-rule:nonzero;"/>
        </g>
        <g transform="matrix(0.962273,0,0,0.962273,12.769,7.5172)">
            <path d="M404.794,439.506L384.684,459.819C381.276,462.738 380.879,467.867 383.798,471.275C386.717,474.683 391.846,475.08 395.254,472.161C395.572,471.889 395.868,471.593 396.141,471.275L416.25,450.962C419.169,447.554 418.772,442.425 415.364,439.506C412.322,436.901 407.836,436.901 404.794,439.506Z" style="fill:rgb(255,192,0);fill-rule:nonzero;"/>
        </g>
        <g transform="matrix(0.962273,0,0,0.962273,12.769,7.5172)">
            <path d="M597.763,437.962C594.755,434.632 589.618,434.37 586.287,437.377C582.956,440.384 582.694,445.522 585.701,448.853C585.88,449.05 586.069,449.24 586.266,449.419L606.578,469.731C609.45,473.179 614.574,473.646 618.021,470.774C621.469,467.902 621.936,462.779 619.064,459.331C618.674,458.863 618.234,458.441 617.75,458.072L597.763,437.962Z" style="fill:rgb(255,192,0);fill-rule:nonzero;"/>
        </g>
        <g transform="matrix(0.962273,0,0,0.962273,12.769,7.5172)">
            <path d="M654.312,351.309L625.875,351.309C621.388,351.309 617.75,354.947 617.75,359.434C617.75,363.922 621.388,367.559 625.875,367.559L654.312,367.559C658.8,367.559 662.438,363.922 662.438,359.434C662.438,354.947 658.8,351.309 654.312,351.309Z" style="fill:rgb(255,192,0);fill-rule:nonzero;"/>
        </g>
    </g>
</svg>
