<?xml version="1.0" encoding="UTF-8" standalone="no"?>
<!DOCTYPE svg PUBLIC "-//W3C//DTD SVG 1.1//EN" "http://www.w3.org/Graphics/SVG/1.1/DTD/svg11.dtd">
<svg width="100%" height="100%" viewBox="0 0 76 76" version="1.1" xmlns="http://www.w3.org/2000/svg" xmlns:xlink="http://www.w3.org/1999/xlink" xml:space="preserve" xmlns:serif="http://www.serif.com/" style="fill-rule:evenodd;clip-rule:evenodd;stroke-linejoin:round;stroke-miterlimit:2;">
    <g transform="matrix(0.283683,0,0,0.283683,-57.2087,-46.6622)">
        <path d="M361.942,383.051L309.234,383.051C304.359,383.051 300.408,387.002 300.408,391.877C300.408,396.751 304.359,400.703 309.234,400.703L361.942,400.703C366.817,400.703 370.769,396.751 370.769,391.877C370.769,387.002 366.817,383.051 361.942,383.051Z" style="fill:rgb(255,192,0);fill-rule:nonzero;"/>
        <path d="M335.59,430.63C345.599,430.628 353.924,422.931 354.709,412.953L316.467,412.953C317.252,422.932 325.58,430.63 335.59,430.63Z" style="fill:rgb(255,192,0);fill-rule:nonzero;"/>
        <path d="M412.069,290.202L412.069,287.556C411.306,245.781 377.37,212.235 335.59,211.955C293.806,212.232 259.866,245.778 259.101,287.556L259.101,290.202C259.386,299.262 261.186,308.211 264.426,316.677C267.527,324.666 272.029,332.038 277.721,338.445C284.721,346.101 292.399,360.948 295.636,367.539C296.629,369.539 298.668,370.804 300.901,370.804L370.269,370.804C372.502,370.803 374.542,369.538 375.537,367.539C378.771,360.951 386.449,346.101 393.449,338.445C399.141,332.038 403.643,324.666 406.744,316.677C409.983,308.21 411.782,299.262 412.069,290.202ZM394.42,289.895C394.154,296.946 392.731,303.905 390.206,310.494C387.873,316.432 384.506,321.909 380.262,326.673C373.52,334.801 367.745,343.684 363.054,353.145L308.107,353.145C303.417,343.684 297.642,334.8 290.899,326.673C286.655,321.91 283.289,316.432 280.958,310.494C278.435,303.907 277.013,296.95 276.75,289.901L276.75,287.696C277.344,255.574 303.456,229.791 335.583,229.604C367.713,229.79 393.826,255.578 394.414,287.703L394.42,289.895Z" style="fill:rgb(255,192,0);fill-rule:nonzero;"/>
        <path d="M336.19,199.938C339.573,199.938 342.315,197.195 342.315,193.812L342.315,172.375C342.315,168.992 339.573,166.25 336.19,166.25C332.807,166.25 330.065,168.992 330.065,172.375L330.065,193.812C330.065,197.195 332.807,199.938 336.19,199.938Z" style="fill:rgb(255,192,0);fill-rule:nonzero;"/>
        <path d="M263.498,226.887C265.849,229.321 269.726,229.388 272.159,227.038C274.592,224.688 274.66,220.811 272.31,218.377C272.26,218.326 272.21,218.276 272.159,218.227L256.987,203.055C254.554,200.705 250.677,200.772 248.327,203.206C246.034,205.579 246.034,209.342 248.327,211.716L263.498,226.887Z" style="fill:rgb(255,192,0);fill-rule:nonzero;"/>
        <path d="M404.634,229.831C406.258,229.83 407.816,229.185 408.964,228.036L424.12,212.877C426.421,210.397 426.276,206.521 423.796,204.221C421.445,202.039 417.809,202.041 415.46,204.225L400.312,219.375C397.921,221.768 397.922,225.646 400.314,228.037C401.462,229.185 403.019,229.83 404.643,229.831L404.634,229.831Z" style="fill:rgb(255,192,0);fill-rule:nonzero;"/>
        <path d="M241.062,281.094L219.625,281.094C216.242,281.094 213.5,283.836 213.5,287.219C213.5,290.602 216.242,293.344 219.625,293.344L241.062,293.344C244.445,293.344 247.188,290.602 247.188,287.219C247.188,283.836 244.445,281.094 241.062,281.094Z" style="fill:rgb(255,192,0);fill-rule:nonzero;"/>
        <path d="M263.498,347.354L248.339,362.513C245.848,364.803 245.685,368.677 247.974,371.168C250.263,373.658 254.138,373.822 256.629,371.533C256.753,371.418 256.873,371.298 256.987,371.174L272.147,356.015C274.58,353.665 274.647,349.787 272.298,347.354C269.947,344.921 266.07,344.853 263.637,347.203C263.586,347.253 263.535,347.303 263.486,347.354L263.498,347.354Z" style="fill:rgb(255,192,0);fill-rule:nonzero;"/>
        <path d="M408.964,346.193C406.661,343.716 402.785,343.575 400.308,345.878C397.83,348.181 397.689,352.057 399.993,354.535C400.095,354.645 400.202,354.751 400.312,354.854L415.469,370.01C417.902,372.361 421.779,372.293 424.13,369.86C426.422,367.486 426.422,363.723 424.13,361.35L408.964,346.193Z" style="fill:rgb(255,192,0);fill-rule:nonzero;"/>
        <path d="M451.609,280.885L430.172,280.885C426.789,280.885 424.047,283.628 424.047,287.01C424.047,290.393 426.789,293.135 430.172,293.135L451.609,293.135C454.992,293.135 457.734,290.393 457.734,287.01C457.734,283.628 454.992,280.885 451.609,280.885Z" style="fill:rgb(255,192,0);fill-rule:nonzero;"/>
    </g>
</svg>
