<?xml version="1.0" encoding="UTF-8" standalone="no"?>
<!DOCTYPE svg PUBLIC "-//W3C//DTD SVG 1.1//EN" "http://www.w3.org/Graphics/SVG/1.1/DTD/svg11.dtd">
<svg width="100%" height="100%" viewBox="0 0 76 76" version="1.1" xmlns="http://www.w3.org/2000/svg" xmlns:xlink="http://www.w3.org/1999/xlink" xml:space="preserve" xmlns:serif="http://www.serif.com/" style="fill-rule:evenodd;clip-rule:evenodd;stroke-linejoin:round;stroke-miterlimit:2;">
    <g transform="matrix(0.25674,0,0,0.25674,-22.4622,-54.298)">
        <path d="M277.781,412.544C229.734,401.013 197.447,425.612 195.909,426.766C192.45,429.456 192.066,434.069 194.372,437.528C195.909,439.45 198.216,440.603 200.522,440.603C202.059,440.603 203.981,440.219 205.134,439.066C205.519,438.681 232.809,417.925 273.938,427.534C278.166,428.688 282.394,425.997 283.163,421.769C284.7,417.541 282.009,413.312 277.781,412.544Z" style="fill-rule:nonzero;"/>
        <path d="M197.062,346.816C197.062,359.553 186.737,369.878 174,369.878C161.263,369.878 150.938,359.553 150.938,346.816C150.938,334.079 161.263,323.753 174,323.753C186.737,323.753 197.062,334.079 197.062,346.816Z" style="fill-rule:nonzero;"/>
        <path d="M155.55,304.534L193.988,300.691C198.216,300.306 201.291,296.462 200.906,292.234C200.522,288.006 196.678,284.931 192.45,285.316L154.012,289.159C149.784,289.544 146.709,293.388 147.094,297.616C147.478,301.459 150.938,304.534 154.781,304.534L155.55,304.534Z" style="fill-rule:nonzero;"/>
        <path d="M320.062,346.816C320.062,359.553 309.737,369.878 297,369.878C284.263,369.878 273.938,359.553 273.938,346.816C273.938,334.079 284.263,323.753 297,323.753C309.737,323.753 320.062,334.079 320.062,346.816Z" style="fill-rule:nonzero;"/>
        <path d="M316.987,289.159L278.55,285.316C274.322,284.931 270.478,288.006 270.094,292.234C269.709,296.462 272.784,300.306 277.013,300.691L315.45,304.534L316.219,304.534C320.062,304.534 323.522,301.459 323.906,297.616C324.291,293.388 321.216,289.544 316.987,289.159Z" style="fill-rule:nonzero;"/>
        <path d="M235.5,228.812C307.378,228.812 366.188,287.622 366.188,359.5C366.188,431.378 307.378,490.188 235.5,490.188C163.622,490.188 104.812,431.378 104.812,359.5C104.812,287.622 163.622,228.812 235.5,228.812M235.5,213.438C154.781,213.438 89.438,278.781 89.438,359.5C89.438,440.219 154.781,505.562 235.5,505.562C316.219,505.562 381.562,440.219 381.562,359.5C381.562,278.781 316.219,213.438 235.5,213.438Z" style="fill-rule:nonzero;"/>
    </g>
</svg>
