<svg 
    class="img-fluid" id="outputsvg" 
    xmlns="http://www.w3.org/2000/svg" 
    style="transform: none; transform-origin: 50% 50%; cursor: move;" 
    width="3163" height="2921" viewBox="0 0 31630 29210">
    <g id="l7D3255btTkKRpBHMiJd2yL" fill="rgb(127,127,127)" style="transform: none;">
        <g>
            <path id="pcxORDWEZ" d="M0 29175 c0 -32 2 -35 30 -35 l30 0 0 -14570 0 -14570 15785 0 15785 0 0 14605 0 14605 -395 0 -395 0 0 -30 0 -30 -15385 0 -15385 0 0 30 c0 28 -3 30 -35 30 -33 0 -35 -2 -35 -35z m24488 -9119 c139 -15 214 -22 782 -76 173 -17 385 -37 470 -46 85 -8 274 -26 420 -39 146 -14 330 -32 410 -40 80 -8 312 -31 515 -50 796 -76 900 -86 906 -88 6 -2 -2482 -2735 -2491 -2736 -3 -1 -94 227 -201 507 -188 486 -197 507 -223 510 -17 2 -247 -81 -629 -229 -331 -127 -699 -269 -817 -314 -118 -46 -620 -239 -1115 -430 -495 -191 -1044 -402 -1220 -470 -176 -68 -637 -245 -1025 -395 -388 -150 -849 -327 -1025 -395 -176 -68 -752 -289 -1280 -493 -2375 -915 -2868 -1106 -4515 -1740 l-385 -148 -3 -34 -2 -35 127 -60 c71 -33 209 -99 308 -146 99 -47 214 -102 255 -122 41 -19 138 -65 215 -102 77 -37 176 -84 220 -105 94 -44 1159 -551 1483 -706 64 -31 158 -76 207 -99 50 -23 565 -269 1145 -545 580 -277 1105 -527 1165 -555 336 -160 1397 -666 1495 -713 63 -30 160 -76 215 -102 55 -26 147 -70 205 -98 58 -27 344 -163 635 -302 292 -139 580 -276 640 -305 61 -29 200 -95 310 -148 110 -52 263 -125 340 -162 77 -37 176 -84 220 -105 44 -21 360 -171 703 -334 539 -257 629 -297 663 -294 l39 3 73 150 c39 83 94 198 121 255 45 95 175 368 244 512 l27 57 96 -122 c165 -211 714 -915 1289 -1652 304 -390 631 -809 726 -930 l172 -220 -92 -3 c-198 -6 -3611 -70 -3614 -67 -1 1 30 69 69 151 39 82 108 228 154 324 45 96 117 246 159 334 46 95 76 171 76 190 0 30 -5 34 -70 65 -38 17 -136 64 -217 103 -82 38 -431 205 -778 370 -346 165 -677 323 -735 350 -58 28 -150 72 -205 98 -55 26 -152 72 -215 102 -451 216 -1189 567 -1255 598 -44 21 -138 66 -210 100 -71 34 -170 82 -220 105 -49 24 -265 127 -480 229 -214 102 -398 186 -408 186 -11 0 -25 7 -31 15 -9 12 -146 79 -791 385 -55 26 -962 458 -2015 960 -1053 502 -1955 932 -2005 955 -49 23 -196 93 -325 155 -129 62 -275 131 -325 155 -99 47 -98 47 -764 364 -286 136 -476 221 -494 221 -17 0 -193 -63 -391 -139 -1481 -570 -5549 -2138 -6255 -2410 -173 -67 -315 -120 -317 -119 -1 2 -75 192 -164 423 -89 231 -175 454 -191 495 -16 41 -25 77 -21 81 4 3 266 105 582 227 316 121 1079 415 1695 652 616 238 1341 517 1610 621 270 103 839 323 1265 487 l775 299 3 34 3 34 -273 129 c-150 72 -338 161 -418 199 -534 255 -805 384 -875 417 -44 21 -161 77 -259 124 -98 47 -188 86 -199 86 -11 0 -25 7 -31 15 -6 8 -211 109 -456 226 -245 116 -494 235 -555 264 -60 29 -443 211 -850 405 -407 193 -798 380 -870 414 -71 34 -369 176 -661 315 l-532 254 53 111 c108 227 316 663 370 772 l40 82 395 -189 c217 -104 460 -220 540 -258 134 -64 263 -126 495 -236 50 -23 281 -134 515 -245 234 -112 470 -224 525 -250 55 -26 249 -119 430 -205 182 -87 375 -179 430 -205 159 -76 1357 -646 1495 -712 69 -33 157 -75 195 -93 39 -18 138 -65 220 -105 83 -40 186 -89 230 -110 134 -63 1120 -533 1290 -615 88 -42 176 -79 196 -82 29 -4 148 38 690 247 1184 456 2817 1085 3859 1487 564 217 1169 450 1345 518 176 68 667 257 1090 420 424 163 943 364 1155 445 212 82 702 271 1090 420 388 150 1036 399 1440 555 404 156 1082 417 1505 580 424 163 794 306 823 317 46 17 52 23 52 48 0 22 -161 451 -346 922 -19 49 -34 92 -34 98 0 13 15 13 178 -4z"></path>
        </g>
    </g>
    <g id="l6wNJeQOq7MXm2YIiEAna4" fill="rgb(190,0,0)" style="transform: none;">
        <g>
            <path id="ptQdbsfow" d="M24250 20107 c0 -6 61 -166 243 -637 109 -282 161 -427 153 -431 -6 -4 -245 -97 -531 -207 -518 -199 -1950 -751 -3280 -1264 -385 -148 -873 -336 -1085 -418 -212 -81 -731 -282 -1155 -445 -423 -163 -914 -352 -1090 -420 -176 -68 -781 -301 -1345 -518 -564 -217 -1504 -580 -2090 -805 -586 -226 -1368 -528 -1739 -670 -590 -228 -677 -259 -702 -250 -24 8 -73 -8 -371 -122 -374 -144 -436 -168 -530 -204 -360 -140 -549 -212 -577 -221 l-24 -7 24 -13 24 -13 -25 -10 c-73 -29 -1801 -695 -2130 -822 -212 -81 -878 -338 -1480 -570 -602 -232 -1369 -528 -1705 -657 -335 -129 -613 -238 -617 -241 -4 -4 7 -43 24 -87 172 -446 378 -978 381 -981 2 -2 156 55 343 127 186 72 800 309 1364 526 1521 586 3919 1510 4917 1894 314 122 364 138 385 128 22 -9 104 20 664 236 351 136 683 263 736 283 88 33 96 38 77 48 -12 6 -18 14 -13 17 5 3 185 73 399 155 955 368 1885 726 4500 1734 528 204 1104 425 1280 493 176 68 637 245 1025 395 388 150 849 327 1025 395 176 68 725 279 1220 470 495 191 992 382 1105 426 113 43 477 184 810 312 333 129 608 231 611 228 4 -3 98 -244 210 -535 l203 -528 31 33 c17 19 590 648 1274 1399 684 751 1253 1375 1264 1387 16 18 17 23 6 27 -8 2 -144 16 -304 30 -159 15 -306 29 -325 31 -19 2 -66 6 -105 10 -38 3 -88 8 -110 11 -22 2 -137 13 -255 24 -118 11 -233 22 -255 25 -22 2 -184 18 -360 35 -417 39 -396 37 -680 65 -27 3 -192 18 -365 35 -173 16 -337 32 -365 35 -27 3 -122 12 -210 20 -88 8 -203 19 -255 25 -201 20 -220 21 -220 17z"></path>
        </g>
    </g>
    <g id="l4HzV542mM1SAsDL99o147Z" fill="rgb(111,174,70)" style="transform: none;">
        <g>
            <path id="p10eBRC1Wo" d="M4651 17339 c-9 -23 -40 -88 -191 -404 -34 -71 -79 -166 -100 -210 -21 -44 -72 -152 -114 -239 -42 -87 -75 -160 -73 -162 3 -3 1071 -514 1262 -604 80 -37 1412 -672 1705 -812 85 -41 339 -162 564 -269 284 -134 411 -200 414 -212 3 -13 11 -17 27 -13 16 4 77 -21 201 -80 99 -47 215 -103 259 -124 44 -21 229 -109 410 -195 182 -87 380 -181 440 -210 61 -29 245 -117 410 -195 165 -79 307 -143 316 -142 16 1 102 33 577 218 104 40 173 67 532 204 316 121 384 150 353 150 -6 0 -82 34 -169 76 -200 96 -1182 564 -1289 614 -44 21 -147 70 -230 110 -82 40 -181 87 -220 105 -38 18 -126 60 -195 93 -138 66 -1336 636 -1495 712 -55 26 -248 118 -430 205 -181 86 -375 179 -430 205 -55 26 -291 138 -525 250 -234 111 -465 222 -515 245 -49 24 -144 69 -210 100 -66 31 -160 76 -210 100 -49 23 -304 145 -565 270 -261 125 -481 229 -487 232 -7 3 -17 -6 -22 -18z"></path>
            <path id="pgSIg3Pm1" d="M12955 13301 c-66 -26 -393 -152 -727 -281 -335 -129 -608 -237 -608 -240 0 -4 188 -96 418 -205 229 -109 491 -234 582 -278 91 -43 197 -94 235 -112 39 -18 176 -83 305 -145 129 -62 276 -132 325 -155 82 -39 3684 -1755 4045 -1927 85 -41 292 -139 459 -219 209 -99 306 -150 309 -162 3 -13 11 -17 27 -13 15 4 138 -50 411 -180 214 -102 430 -205 479 -229 50 -23 149 -71 220 -105 72 -34 166 -79 210 -100 66 -31 804 -382 1255 -598 63 -30 160 -76 215 -102 55 -26 147 -70 205 -98 58 -27 391 -186 740 -352 349 -167 691 -330 760 -362 69 -33 163 -78 210 -100 47 -22 86 -41 88 -42 1 -2 -32 -75 -74 -162 -42 -87 -114 -238 -159 -334 -46 -96 -118 -247 -160 -335 -42 -88 -81 -170 -86 -183 l-9 -24 282 6 c156 3 381 9 501 12 177 5 217 3 217 -8 0 -9 3 -10 8 -2 11 18 522 29 522 12 0 -10 2 -10 8 -1 5 8 102 13 332 17 179 4 412 9 518 12 152 4 192 2 192 -8 0 -9 2 -10 8 -2 7 12 186 18 882 30 201 4 367 8 368 10 2 1 -83 114 -190 251 -107 136 -444 568 -748 958 -476 611 -804 1031 -1303 1670 -60 77 -112 141 -116 143 -4 1 -27 -39 -51 -90 -24 -51 -78 -165 -120 -253 -42 -88 -99 -207 -126 -265 -124 -264 -194 -405 -203 -408 -5 -2 -290 130 -633 294 -342 163 -659 313 -703 334 -44 21 -143 68 -220 105 -77 37 -230 110 -340 162 -110 53 -249 119 -310 148 -60 29 -348 166 -640 305 -291 139 -577 275 -635 302 -58 28 -150 72 -205 98 -55 26 -152 72 -215 102 -98 47 -1159 553 -1495 713 -60 28 -585 278 -1165 555 -580 276 -1095 522 -1145 545 -49 23 -142 67 -205 98 -292 139 -1389 662 -1485 707 -44 21 -138 66 -210 100 -71 34 -170 81 -220 105 -49 24 -153 73 -230 110 -305 146 -473 225 -476 224 -2 0 -58 -22 -124 -48z"></path>
        </g>
    </g>
    <g id="l3oZj71SrlrKvpQjzCewYYP" fill="rgb(0,0,0)" style="transform: none;">
        <g style="transform: none;">
            <path id="pyFzZQ4St" d="M40 29190 c0 -13 -7 -20 -20 -20 -20 0 -20 -7 -20 -14585 l0 -14585 45 0 45 0 0 14560 0 14560 15390 0 15390 0 0 45 0 45 -15415 0 c-15408 0 -15415 0 -15415 -20z"></path>
        </g>
    </g>
</svg>